<?xml version="1.0" encoding="UTF-8"?>
<svg id="_Слой_2" data-name="Слой 2" xmlns="http://www.w3.org/2000/svg" viewBox="0 0 121.92 174.99">
  <defs>
    <style>
      .cls-1 {
        fill: #fff;
      }

      .cls-2 {
        fill: #f5aa9d;
      }

      .cls-2, .cls-3, .cls-4 {
        stroke: #1d1d1b;
        stroke-miterlimit: 10;
      }

      .cls-3 {
        fill: #8ac7bc;
      }

      .cls-5 {
        opacity: .5;
      }

      .cls-4 {
        fill: none;
      }
    </style>
  </defs>
  <g id="_Слой_1-2" data-name="Слой 1">
    <g>
      <g>
        <path class="cls-3" d="M37.55,64.08c5.34-17.48,14.27-20.58,14.19-33.04-.08-13.05-10.01-29.12-23.74-30.45C22.11.03,16.57,2.28,12.2,5.53c-.08.05-.15.1-.23.17-2.37,1.8-4.39,3.9-5.91,5.99-10.39,14.28-1.89,34.03-.77,36.65,4.99,11.59,10.86,11.84,14.71,22.96,1.64,4.76,2.26,9.58.26,27.1-1.54,13.45-6.54,51.23-2.84,65.29.84,3.19,2.31,5.85,4.64,7.74.5.4,4.37,3.45,8.52,2.58,1.01-.21,1.92-.63,2.73-1.18.04-.02.07-.05.1-.07,3-2.09,4.66-5.98,5.43-7.78,6.71-15.72-1.4-37.72-3.1-67.1-.9-15.64-1.36-23.46,1.81-33.8ZM28.77,165.24c-2.28,0-4.13-1.85-4.13-4.13s1.85-4.13,4.13-4.13,4.13,1.85,4.13,4.13-1.85,4.13-4.13,4.13Z"/>
        <g class="cls-5">
          <path class="cls-1" d="M19.32,1.56c-4.98,2.48-10.01,5.89-13.39,10.38C2.95,15.9,1.54,20.87.91,25.72c-1.44,11.01,2.06,21.58,8.63,30.39,2.9,3.89,6.44,7.34,8.46,11.82.99,2.2,1.54,4.59,2.08,6.93.6,2.58,1.14,5.18,1.48,7.8s.54,5.36.23,8c-.37,3.15-.88,6.27-1.11,9.45-.47,6.5-.41,13.02-.61,19.53-.23,7.19-1.19,14.21-2.12,21.32-.92,7.12-1.34,14.42.83,21.36.96,3.06,5.78,1.75,4.82-1.33-1.84-5.91-1.59-12.08-.89-18.16s1.78-12.2,2.14-18.38.31-12.87.55-19.3c.12-3.13.31-6.25.67-9.36.31-2.74.87-5.43.84-8.21-.06-5.47-1.22-10.98-2.56-16.26-1.17-4.62-3.23-8.6-6.15-12.35-1.59-2.05-3.34-3.97-4.86-6.07-1.64-2.26-3.1-4.65-4.33-7.16-2.18-4.45-3.4-9.28-3.47-14.24s.75-10.34,3.21-14.78c2.76-4.96,8.11-8.39,13.07-10.86,2.88-1.44.35-5.75-2.52-4.32h0Z"/>
        </g>
        <path class="cls-4" d="M37.09,64.41c5.35-17.48,14.27-20.58,14.2-33.04-.08-13.05-10.01-29.12-23.75-30.45-5.68-.55-11.05,1.53-15.34,4.61-.08.05-.15.1-.23.17-2.57,1.87-4.74,4.1-6.36,6.32-10.39,14.28-1.9,34.03-.78,36.64,4.99,11.6,10.86,11.85,14.71,22.97,1.65,4.75,2.26,9.58.26,27.1-1.53,13.45-6.54,51.23-2.84,65.29.84,3.19,2.31,5.85,4.65,7.74.5.4,4.36,3.45,8.51,2.58,1.21-.25,2.27-.79,3.19-1.51.04-.02.07-.05.1-.07,2.72-2.16,4.24-5.75,4.97-7.45,6.71-15.72-1.4-37.72-3.09-67.1-.91-15.64-1.36-23.46,1.8-33.8ZM28.77,156.98c2.28,0,4.13,1.85,4.13,4.13s-1.85,4.13-4.13,4.13-4.13-1.85-4.13-4.13,1.85-4.13,4.13-4.13Z"/>
      </g>
      <path class="cls-2" d="M107.22,64.08c5.35-17.48,14.27-20.58,14.2-33.04-.08-13.05-10.01-29.12-23.74-30.45-5.93-.57-11.51,1.71-15.89,5-.05.03-.1.07-.15.11-2.37,1.8-4.38,3.9-5.9,5.99-10.39,14.28-1.9,34.03-.77,36.65,4.98,11.59,10.85,11.84,14.71,22.96,1.64,4.76,2.26,9.58.25,27.1-1.53,13.45-6.53,51.23-2.83,65.29.83,3.19,2.3,5.85,4.64,7.74.5.4,4.37,3.45,8.52,2.58,1.01-.21,1.92-.63,2.73-1.18.01-.01.02-.01.03-.02,3.04-2.08,4.72-6.02,5.5-7.83,6.7-15.72-1.4-37.72-3.1-67.1-.91-15.64-1.36-23.46,1.8-33.8ZM98.45,165.24c-2.28,0-4.13-1.85-4.13-4.13s1.85-4.13,4.13-4.13,4.13,1.85,4.13,4.13-1.85,4.13-4.13,4.13Z"/>
      <g class="cls-5">
        <path class="cls-1" d="M88.99,1.56c-4.98,2.48-10.01,5.89-13.39,10.38-2.98,3.96-4.39,8.93-5.02,13.78-1.44,11.01,2.06,21.58,8.63,30.39,2.9,3.89,6.44,7.34,8.46,11.82.99,2.2,1.54,4.59,2.08,6.93.6,2.58,1.14,5.18,1.48,7.8s.54,5.36.23,8c-.37,3.15-.88,6.27-1.11,9.45-.47,6.5-.41,13.02-.61,19.53-.23,7.19-1.19,14.21-2.12,21.32s-1.34,14.42.83,21.36c.96,3.06,5.78,1.75,4.82-1.33-1.84-5.91-1.59-12.08-.89-18.16s1.78-12.2,2.14-18.38.31-12.87.55-19.3c.12-3.13.31-6.25.67-9.36.31-2.74.87-5.43.84-8.21-.06-5.47-1.22-10.98-2.56-16.26-1.17-4.62-3.23-8.6-6.15-12.35-1.59-2.05-3.34-3.97-4.86-6.07-1.64-2.26-3.1-4.65-4.33-7.16-2.18-4.45-3.4-9.28-3.47-14.24s.75-10.34,3.21-14.78c2.76-4.96,8.11-8.39,13.07-10.86,2.88-1.44.35-5.75-2.52-4.32h0Z"/>
      </g>
      <path class="cls-4" d="M106.77,64.41c5.34-17.48,14.27-20.58,14.19-33.04-.08-13.05-10.01-29.12-23.74-30.45-5.72-.55-11.12,1.56-15.43,4.67-.05.03-.1.07-.15.11-2.57,1.87-4.74,4.1-6.35,6.32-10.39,14.28-1.9,34.03-.78,36.64,4.99,11.6,10.86,11.85,14.71,22.97,1.65,4.75,2.26,9.58.26,27.1-1.54,13.45-6.54,51.23-2.84,65.29.84,3.19,2.31,5.85,4.65,7.74.49.4,4.36,3.45,8.51,2.58,1.21-.25,2.26-.79,3.19-1.51.01-.01.02-.01.03-.02,2.75-2.15,4.31-5.78,5.04-7.5,6.71-15.72-1.4-37.72-3.1-67.1-.9-15.64-1.35-23.46,1.81-33.8ZM98.45,156.98c2.28,0,4.13,1.85,4.13,4.13s-1.85,4.13-4.13,4.13-4.13-1.85-4.13-4.13,1.85-4.13,4.13-4.13Z"/>
    </g>
  </g>
</svg>