<?xml version="1.0" encoding="UTF-8"?>
<svg id="_Слой_2" data-name="Слой 2" xmlns="http://www.w3.org/2000/svg" viewBox="0 0 179.63 31">
  <defs>
    <style>
      .cls-1 {
        fill: #fbdbab;
      }

      .cls-1, .cls-2 {
        stroke: #1d1d1b;
        stroke-miterlimit: 10;
      }

      .cls-2 {
        fill: none;
        stroke-linecap: round;
        stroke-width: 2px;
      }
    </style>
  </defs>
  <g id="_Слой_1-2" data-name="Слой 1">
    <g>
      <path class="cls-1" d="M176.03,7.68c-2.87-3.49-6.97-4.57-9.03-5.03C137.32-4.03,41.59,7.09,15.82,6c-2.43-.1-9.65-.54-13.16,3.87C-.63,14.01-.09,21.71,3.82,25.36c3.42,3.19,8.72,2.62,11.22,2.32,24.06-2.9,69.88-12.02,74.38-3.73.64,1.18,1.26,4.24,3.82,5.28,1.43.58,2.91.3,3.87,0-.19-4.91-.38-9.81-.57-14.71,25.34-.58,50.67-1.16,76-1.74v14.9c.65.6,1.46,1.13,2.33,1.03,2.84-.33,3.9-7.25,4-7.93.23-1.64,1.18-8.21-2.84-13.1ZM12.23,22.26c-2.78,0-5.04-2.25-5.04-5.03s2.26-5.04,5.04-5.04,5.03,2.26,5.03,5.04-2.25,5.03-5.03,5.03Z"/>
      <path class="cls-2" d="M102.77,30c-.08-5-.15-10-.23-15"/>
      <path class="cls-2" d="M108.51,30c-.08-5-.15-10-.23-15"/>
      <path class="cls-2" d="M114.07,29.79c-.08-5-.15-10-.23-15"/>
      <path class="cls-2" d="M119.29,29.61c-.08-5-.15-10-.23-15"/>
      <path class="cls-2" d="M125.16,29.61c-.08-5-.15-10-.23-15"/>
      <path class="cls-2" d="M130.82,29.22c-.08-5-.15-10-.23-15"/>
      <path class="cls-2" d="M135.65,29.22c-.08-5-.15-10-.23-15"/>
      <path class="cls-2" d="M140.62,29.01c-.08-5-.15-10-.23-15"/>
      <path class="cls-2" d="M145.91,28.84c-.08-5-.15-10-.23-15"/>
      <path class="cls-2" d="M151.57,28.66c-.08-5-.15-10-.23-15"/>
      <path class="cls-2" d="M156.98,28.84c-.08-5-.15-10-.23-15"/>
      <path class="cls-2" d="M161.91,28.84c-.08-5-.15-10-.23-15"/>
      <path class="cls-2" d="M167.53,28.66c-.08-5-.15-10-.23-15"/>
    </g>
  </g>
</svg>