<?xml version="1.0" encoding="UTF-8"?>
<svg id="_Слой_2" data-name="Слой 2" xmlns="http://www.w3.org/2000/svg" viewBox="0 0 139.21 180.96">
  <defs>
    <style>
      .cls-1 {
        stroke-linejoin: round;
      }

      .cls-1, .cls-2, .cls-3, .cls-4 {
        stroke: #1d1d1b;
      }

      .cls-1, .cls-4 {
        fill: #1d1d1b;
      }

      .cls-2 {
        fill: #fff;
      }

      .cls-2, .cls-3, .cls-4 {
        stroke-miterlimit: 10;
      }

      .cls-3 {
        fill: #f39351;
      }
    </style>
  </defs>
  <g id="_Слой_1-2" data-name="Слой 1">
    <g>
      <g>
        <path class="cls-3" d="M138.23,92.01h0c.4-5.12.57-10.35.43-15.19-.11-4.17-.45-8.06-1.06-11.35-.76-4.19-1.95-7.42-3.66-9.02-.3-.3-.62-.55-.98-.74-.12-.06-.24-.12-.36-.17-.15-.06-.31-.11-.47-.15-.07-.02-.15-.03-.22-.04-.8-.12-2.19.22-6.95,4.11-.58.48-1.22,1.02-1.92,1.62-.29.23-.58.49-.89.75-.22.2-.43.38-.64.56-6.11,5.36-10.52,9.22-13.96,12.79-.06.06-.12.12-.17.18-.08.08-.15.17-.23.25-.42.43-.82.86-1.19,1.29-.24.25-.46.5-.67.76-.07.07-.13.14-.19.21-1.59,1.86-2.96,3.73-4.23,5.78-.19.3-.37.61-.55.91-8.19,13.84-10.1,29.58-10.1,29.58-.68,5.63-1.27,16.17-5.33,17.11-.95.22-1.35-.25-2.21.01-4.55,1.41-7.5,18.66.09,24.68,4.91,3.89,12.35,1.61,17.62,0,2.96-.91,13.34-4.45,22.74-16.06,9.77-12.08,11.94-24.77,13.74-36.2.16-1.02.31-2.06.46-3.13"/>
        <path class="cls-2" d="M123.04,61.08c-11.04,9.42-13.92,12.41-15.65,14.28-4.14,4.45-7.56,8.66-7.06,9.2.62.65,6.16-5.11,8.32-3.78,2.99,1.85-3.07,15.8-1.45,16.55,1.63.75,8.34-12.99,11.32-12,2.75.91.45,13.65,2.23,14.03,1.88.4,4.93-13.77,8.81-13.65,3.96.13,6.09,15.1,7.78,14.84.81-.13.81-3.64.9-8.55.31-16.36,1.11-19.6-.6-26.44-1.11-4.46-2.35-9.41-5.5-10.17-1.75-.42-3.2.66-9.09,5.68Z"/>
      </g>
      <path class="cls-3" d="M15.87,104.55c-1.77,1.96-2.69,3.59-4.52,6.84-3.05,5.42-13.35,23.71-6.19,41.16,1.38,3.37,5.09,10.8,14.84,17.03,17.08-.3,34.15-.6,51.23-.9,3.76-1.93,13.4-7.56,17.42-18.71,3.62-10.06.82-19.5-1.55-27.48-1.71-5.76-3.17-10.68-6.71-15.23-13.59-17.45-49.71-19.1-64.52-2.71Z"/>
      <path class="cls-1" d="M33.22,116.17c-1.75,1.21-.78,3.83-.58,13.35.11,5.08-.19,9.58-.77,18.58-.57,8.75-1.01,10.15-1.74,11.61-1.93,3.84-4.12,4.47-6.39,9.48-1.42,3.13-2.67,6-1.35,8.32,1.45,2.56,5.35,3.24,8.13,2.71,1.02-.2,4.78-1.12,8.52-7.94,3.64-6.64,3.36-11.77,4.26-19.94,2.11-19.24,7.19-23.07,3.48-29.42-3.27-5.59-10.77-8.7-13.55-6.77Z"/>
      <path class="cls-1" d="M50.45,131.26c.33,1.66.86,6.66,1.94,16.65,1,9.32,1.06,12.63,2.52,18.97,1.59,6.92,2.87,8.86,4.45,10.26,3.07,2.72,8.95,4.84,12.39,1.94,2.55-2.15,2.99-6.42,1.74-9.29-1.17-2.69-3.2-2.71-5.42-5.61-1.99-2.6-2.43-5.3-2.9-8.9-1.57-11.91-2.36-17.87-2.13-24,.37-9.75,1.8-12.67-.39-14.52-3.13-2.64-10.85-.67-13.16,3.68-1.32,2.47-.27,4.57.97,10.84Z"/>
      <path class="cls-2" d="M17.42,78.34c-1.36,1.4-3.18,3.7-4.16,6.92-2.21,7.27,1.48,13.97,3.15,16.89,3.97,6.96,8.29,8.39,19.35,17.84,5.09,4.35,8.95,8.12,11.24,10.44,2.16-2.63,5.64-6.53,10.52-10.59,7.82-6.5,11.43-6.92,16.52-12.84,2.77-3.22,6.87-8.01,7.09-14.93.2-6.21-2.83-10.92-4.31-12.92-19.8-.27-39.6-.54-59.4-.81Z"/>
      <path class="cls-3" d="M6.67,37.24c-1.74-5.24-3.55-12.74-3.57-21.84-.01-5.71.69-10.69,1.55-14.71,3.62,1.5,8.14,3.77,12.9,7.23,5.03,3.65,8.75,7.47,11.35,10.58-3.41,2.92-6.85,5.84-10.32,8.77-3.98,3.36-7.95,6.69-11.91,9.97Z"/>
      <path class="cls-3" d="M64,17.98c3.97-3.16,8.48-6.44,13.55-9.68,4.26-2.72,8.38-5.07,12.26-7.1.63,5.03.98,11.45.26,18.84-.79,8.07-2.61,14.81-4.39,19.87-4.15-3.89-8.38-8.02-12.65-12.39-3.14-3.21-6.15-6.4-9.03-9.55Z"/>
      <path class="cls-3" d="M93.94,53.34c-1.57,4.91-5.45,14.75-14.8,23.38-3.86,3.57-12.82,11.85-26.5,13.17-.07-.42-.13-.9-.18-1.46-.18-2.05-.18-4.02-.03-5.88-.27.07-.55.11-.85.12-.17.01-.33,0-.49-.02.56,3.34.56,5.99.53,7.33-.16.01-.39.02-.68.03-1.23.08-2.43.08-3.59.02-.15-.01-.3-.01-.47-.02-11.29-.61-19.63-6.14-24.42-9.32C9.29,71.96,3.09,60.04.52,54.11c.02-.12.04-.24.07-.37.63-3.35,2.15-9.67,6.09-16.5h0c1.99-3.47,4.6-7.07,8.03-10.48,1.68-1.68,6.18-6.15,12.96-9.69h.01c5.41-2.82,12.27-5.04,20.32-4.77,6.81.23,12.6,2.18,17.32,4.64,6.3,3.29,10.71,7.5,13.14,9.82,3.43,3.27,6.13,6.7,8.26,10.02,4.02,6.26,6.01,12.13,7.01,15.75.07.29.14.56.21.81Z"/>
      <path class="cls-2" d="M51.62,89.98c-.16.01-.39.02-.68.03-.78.03-2.01.06-3.59.02-.15-.01-.3-.01-.47-.02-11.29-.61-19.63-6.14-24.42-9.32C9.29,71.96,3.09,60.04.52,54.11c.02-.12.04-.24.07-.37,3.48-1.08,8.43-2.12,14.32-1.82,1.16.06,3.81.19,7.2.9,2.67.57,5.8,1.49,9.04,3.03,4.09,1.93,8.35,4.84,12.02,9.23,1.36,1.63,2.5,3.3,3.46,4.96,2.6,4.49,3.86,8.97,4.46,12.61.56,3.34.56,5.99.53,7.33Z"/>
      <path class="cls-2" d="M93.62,53.34c-1.57,4.91-5.45,14.75-14.8,23.38-3.86,3.57-12.82,11.85-26.5,13.17-.07-.42-.13-.9-.18-1.46-.18-2.05-.18-4.02-.03-5.88.4-4.91,1.79-9.15,3.31-12.47,2.33-5.04,4.97-7.97,4.97-7.97,2.1-2.32,4.33-4.13,6.46-5.52,4.45-2.92,8.5-4.07,10.06-4.45.16-.04.29-.07.39-.09,6.84-1.57,12.66-.52,16.11.48.07.29.14.56.21.81Z"/>
      <path class="cls-4" d="M56.81,78.61c-.42.76-1.89,3.37-4.38,3.94-.27.07-.55.11-.85.12-.17.01-.33,0-.49-.02-2.86-.22-4.67-3.2-5.25-4.14-.31-.51-2.85-4.8-.94-7.3.44-.57,1.03-.94,1.73-1.17,1.07-.36,2.42-.4,3.89-.45,1.88-.06,3.76-.12,5.22.49.62.26,1.17.64,1.6,1.2,2.03,2.64-.28,6.89-.53,7.33Z"/>
      <ellipse class="cls-4" cx="27.15" cy="49.97" rx="5.32" ry="8.94"/>
      <ellipse class="cls-4" cx="71.91" cy="52.56" rx="5.32" ry="8.94"/>
    </g>
  </g>
</svg>