<?xml version="1.0" encoding="UTF-8"?>
<svg id="_Слой_2" data-name="Слой 2" xmlns="http://www.w3.org/2000/svg" viewBox="0 0 205.93 228.23">
  <defs>
    <style>
      .cls-1 {
        fill: #dadada;
      }

      .cls-1, .cls-2, .cls-3, .cls-4 {
        stroke: #1d1d1b;
        stroke-miterlimit: 10;
      }

      .cls-5 {
        fill: #fff;
      }

      .cls-2 {
        fill: #cbcaca;
      }

      .cls-3 {
        fill: #1d1d1b;
      }

      .cls-4 {
        fill: none;
      }
    </style>
  </defs>
  <g id="_Слой_1-2" data-name="Слой 1">
    <g>
      <path class="cls-1" d="M79.35,209.19c-4.94.15-8.48,1.67-13.16,3.68-7.58,3.25-9.72,6.35-10.65,8.13-.81,1.56-1.37,2.63-.97,3.68,1.1,2.89,7.79,1.42,20.52,2.13,10.43.58,13.22,1.96,17.61-.39,2.72-1.45,6.92-4.8,6.58-8.32-.52-5.42-11.54-9.16-19.94-8.9Z"/>
      <path class="cls-1" d="M142.37,209.19c4.94.15,8.48,1.67,13.16,3.68,7.58,3.25,9.72,6.35,10.65,8.13.81,1.56,1.37,2.63.97,3.68-1.1,2.89-7.79,1.42-20.52,2.13-10.43.58-13.22,1.96-17.61-.39-2.72-1.45-6.92-4.8-6.58-8.32.52-5.42,11.54-9.16,19.94-8.9Z"/>
      <path class="cls-1" d="M71.46,181.83c-2.05-5.24-10.37-5.84-11.66-5.93-1.36-.1-7.1-.37-12.19,3.29-3.7,2.66-3.04,4.51-6.97,7.55-1.1.85-5.18,3.93-10.65,4.26-7.55.45-13.11-4.61-15.48-6.77-5.28-4.81-7.3-10.37-9.29-15.87-2.43-6.7-2.82-11.95-2.9-13.16-.28-4.25-.62-9.37,1.94-14.9,1.71-3.71,5.58-9.46,9.44-9.08,1.73.17,3.29,1.55,3.29,1.55,0,0-1.63-1.37-3.29-1.55-4.29-.46-8.37,7.06-9.13,8.45C.18,147.7.4,155.85.57,162.15c.15,5.58.97,9.88,1.55,12.39,1.53,6.66,2.4,10.45,5.42,14.13,5.71,6.95,14.49,7.91,16.45,8.13,1.87.2,9.23.81,16.26-3.29,5.32-3.11,4.9-5.68,10.65-8.32,2.35-1.08,7.71-3.54,12.58-1.55,4.03,1.65,5.28,5.35,6.92,4.76,1.45-.52,2.08-3.97,1.07-6.57Z"/>
      <path class="cls-1" d="M95.49,122.01c-2.14,2.66-1.54,4.85-2.32,10.06-2.1,14.07-9.15,16.46-17.03,34.45-5.08,11.59-7.66,17.48-6,24.97,2.5,11.29,12.75,17.61,16.84,20.13,12.69,7.83,25.57,6.63,29.61,6.19,6.09-.66,22.81-2.45,30.58-15.68,6.32-10.75,3.16-22.96,1.94-27.68-2.2-8.52-4.94-8.7-10.45-20.32-9.11-19.23-4.97-25.85-12.58-32.13-8.93-7.37-25.05-6.88-30.58,0Z"/>
      <ellipse class="cls-1" cx="50.64" cy="35.12" rx="33.46" ry="36.29" transform="translate(-8.59 52.15) rotate(-50.79)"/>
      <ellipse class="cls-2" cx="55.45" cy="39.05" rx="19.55" ry="24.97" transform="translate(-9.86 57.33) rotate(-50.79)"/>
      <ellipse class="cls-1" cx="170.24" cy="35.12" rx="36.29" ry="33.46" transform="translate(16.14 115.54) rotate(-39.21)"/>
      <ellipse class="cls-2" cx="165.43" cy="39.05" rx="24.97" ry="19.55" transform="translate(12.57 113.38) rotate(-39.21)"/>
      <circle class="cls-1" cx="110.03" cy="78.02" r="45.16"/>
      <circle class="cls-3" cx="83.54" cy="80.83" r="8.23"/>
      <circle class="cls-3" cx="138.58" cy="80.83" r="8.23"/>
      <circle class="cls-5" cx="87.82" cy="82.02" r="2.44"/>
      <circle class="cls-5" cx="133.89" cy="82.02" r="2.44"/>
      <path class="cls-3" d="M108.99,96.67c-.3.13-1.83.81-2.39,2.52-.12.36-.45,1.57.13,2.77.46.95,1.24,1.38,2.52,2.06,1.04.56,1.56.84,2.19.77.78-.08,1.39-.72,2.58-2,1.11-1.2,1.67-1.79,1.74-2.32.2-1.53-1.42-3.04-2.77-3.68-.49-.23-2.19-.93-4-.13Z"/>
      <path class="cls-4" d="M121.7,109.38c-.43.58-1.23,1.5-2.52,2.13-2.11,1.02-5.11,1.06-6.65-.45-2.02-1.99-1.05-6.26-1.1-6.26-.04,0,.36,2.45-.77,4.65-.15.3-1.22,2.29-3.23,2.97-2.47.83-5.67-.55-7.68-3.55"/>
      <line class="cls-4" x1="92.98" y1="101.49" x2="60.36" y2="102.36"/>
      <line class="cls-4" x1="91.77" y1="105.65" x2="64.23" y2="112.93"/>
      <line class="cls-4" x1="93.36" y1="109.29" x2="69.65" y2="121.62"/>
      <line class="cls-4" x1="127.62" y1="108.73" x2="151.14" y2="121.62"/>
      <line class="cls-4" x1="128.68" y1="104.81" x2="158.88" y2="113.4"/>
      <line class="cls-4" x1="128.68" y1="101.49" x2="162.65" y2="102.36"/>
      <path class="cls-4" d="M99.68,141.3c-.63,4.2-.99,10.28.52,17.29,1.18,5.49,1.81,8.41,4.13,11.61.76,1.05,3.27,4.29,5.94,9.03.87,1.55,1.51,2.81,1.03,3.87-.99,2.2-6.01,1.84-6.45,1.81-9.19-.66-15.85-20.53-17.29-25.03"/>
      <path class="cls-4" d="M121.62,141.04c.87,18.6-1.47,24.28-2.84,26.32-.3.45-3.62,5.25-6.97,10.06-.34.49-1.08,1.56-1.42,2.04"/>
      <path class="cls-4" d="M133.78,159.96c-.09,1.11-.28,2.71-.73,4.6-2.42,10.27-9.33,15.92-12.19,18.19-3.92,3.11-6.07,3.47-7.74,3.15-1.42-.27-2.46-1.04-3.11-1.62"/>
    </g>
  </g>
</svg>