<?xml version="1.0" encoding="UTF-8"?>
<svg id="_Слой_2" data-name="Слой 2" xmlns="http://www.w3.org/2000/svg" xmlns:xlink="http://www.w3.org/1999/xlink" viewBox="0 0 158.61 316.74">
  <defs>
    <style>
      .cls-1 {
        fill: url(#_Безымянный_градиент_328);
      }

      .cls-1, .cls-2, .cls-3, .cls-4, .cls-5, .cls-6, .cls-7, .cls-8, .cls-9, .cls-10, .cls-11, .cls-12, .cls-13, .cls-14, .cls-15 {
        stroke: #1d1d1b;
      }

      .cls-1, .cls-2, .cls-8, .cls-10, .cls-13, .cls-14 {
        stroke-linecap: round;
      }

      .cls-1, .cls-2, .cls-8, .cls-13 {
        stroke-linejoin: round;
      }

      .cls-2, .cls-14, .cls-15 {
        fill: none;
      }

      .cls-16, .cls-9 {
        fill: #fff;
      }

      .cls-3 {
        fill: #fefefc;
      }

      .cls-3, .cls-4, .cls-5, .cls-6, .cls-7, .cls-9, .cls-10, .cls-11, .cls-12, .cls-14, .cls-15 {
        stroke-miterlimit: 10;
      }

      .cls-4 {
        fill: #e4e5e4;
      }

      .cls-5 {
        fill: #bebebe;
      }

      .cls-6 {
        fill: #bbb;
      }

      .cls-7 {
        fill: #aaaaab;
      }

      .cls-8 {
        fill: url(#_Безымянный_градиент_328-3);
      }

      .cls-10 {
        fill: #1d1d1b;
      }

      .cls-11 {
        fill: #efefef;
      }

      .cls-12 {
        fill: #2a6eb6;
      }

      .cls-13 {
        fill: url(#_Безымянный_градиент_328-2);
      }
    </style>
    <radialGradient id="_Безымянный_градиент_328" data-name="Безымянный градиент 328" cx="37.94" cy="64.02" fx="37.94" fy="64.02" r="28.4" gradientUnits="userSpaceOnUse">
      <stop offset="0" stop-color="#f6b8c0"/>
      <stop offset="1" stop-color="#e69a9b"/>
    </radialGradient>
    <radialGradient id="_Безымянный_градиент_328-2" data-name="Безымянный градиент 328" cx="82.09" cy="47" fx="82.09" fy="47" r="29.38" xlink:href="#_Безымянный_градиент_328"/>
    <radialGradient id="_Безымянный_градиент_328-3" data-name="Безымянный градиент 328" cx="102.98" cy="138.88" fx="102.98" fy="138.88" r="6.5" xlink:href="#_Безымянный_градиент_328"/>
  </defs>
  <g id="_Слой_1-2" data-name="Слой 1">
    <g>
      <path class="cls-11" d="M19.92,294.21c-3.13,2.11-6.6,4.44-7.16,8.13-.34,2.25.36,5.27,1.94,5.81.51.17,1,.03,1.21-.03,1.42-.4,1.94-1.89,2.87-3.41,1.62-2.65,3.62-3.96,3.66-3.92.07.07-6.41,4.72-5.81,9.68.29,2.4,2.18,4.69,4.45,5.47,2.93,1,5.84-.76,7.55-1.79.81-.49,1.67-.99,2.53-1.97,1.25-1.42,1.27-2.41,2.83-5.11.93-1.61,1.73-2.64,1.8-2.6.2.12-5.3,7.5-3.48,9.68.32.39,1.1.91,4.65.19,3.58-.72,13.41-2.7,17.42-11.42.91-1.98,1.37-2.98,1.16-4.26-1.18-7.23-20.24-11.21-30.58-7.16-2.27.89-4.37,2.27-5.03,2.71Z"/>
      <path class="cls-6" d="M76.71,84.67c-1.08-3.89-2.72-9.66-4.84-16.65-4.24-13.97-4.82-14.4-6.19-20.13-.62-2.57-3.1-13.33-2.9-27.48.15-10.67.25-17.84,4.06-19.55,4.55-2.04,11.73,4.89,15.48,8.52,12.07,11.65,17,25.17,18.77,30.77,6.18,19.47,4.06,36.88,1.94,46.84-3.44-1.31-8.41-2.75-14.52-3.1-4.69-.27-8.72.19-11.81.77Z"/>
      <path class="cls-7" d="M37.94,227.78c-2.96-2.63-5.45-3.26-7.16-3.35-3.55-.21-4.48,1.83-10.32,2.58-2.87.37-5.02.19-5.29,1.1-.34,1.12,2.65,2.31,2.39,3.68-.37,1.93-6.68,1.58-7.03,3.42-.29,1.54,3.95,2.68,3.87,4.84-.07,2.05-3.92,2.09-5.23,5.16-.89,2.08-.04,4.24,1.42,8,.79,2.02,2.05,4.68,4.13,7.55,7.74-10.99,15.48-21.98,23.23-32.97Z"/>
      <path class="cls-11" d="M72.92,296.8c.24,3.12,2.86,5.26,3.29,5.61,4.03,3.29,8.86,1.73,16.26,1.94,3.52.1,2.12.44,16.06,3.1,17.51,3.33,22.12,3.25,24.77,3.1,5.71-.33,14.23-.83,15.68-5.23,1.02-3.08-1.66-7.47-4.84-9.29-2.87-1.64-6.19-1.2-6.19-1.16,0,.04,3.14-.47,6.19,1.16,4.25,2.28,3.99,6.41,7.16,6.97,2.08.37,4.27-1.04,5.42-2.52.12-.16,1.6-2.11,1.35-4.26-.68-5.88-13.81-9.12-13.74-9.29.03-.07,2,.42,4.55,1.65,1.51.72,2.27,1.25,2.53,1,.4-.38-.65-2.31-1.53-3.42-2.05-2.6-5.32-3.59-10.81-4.26-10.62-1.3-16.1-.35-16.1-.35-24.44,3.05-30.4-2.58-41.29,4.13-1.99,1.23-9.19,5.66-8.77,11.13Z"/>
      <path class="cls-6" d="M58.02,95.14c-3.34-.4-8.31-1.35-13.81-3.87-6.61-3.03-10.56-6.76-16.52-12.39-8.13-7.68-13.22-14.66-15.48-17.94-2.77-4.01-4.99-8.65-9.42-17.94-1.82-3.81-3.01-6.54-1.81-8.39,1.29-1.99,4.7-1.94,10.19-1.42,11.87,1.12,17.81,1.68,24.13,4.13,1.89.73,9.64,3.85,18.84,11.48,13.98,11.6,21.73,25.68,25.94,35.61-3.28.71-7.52,1.96-12.13,4.26-4.2,2.09-7.5,4.44-9.94,6.45Z"/>
      <path class="cls-5" d="M58.45,163.18c1.65,4.16,1.14,8.66-1.44,11.66-1.71,1.99-3.86,2.78-5.03,3.1,0,0-4.37,2.13-7.74,5.81,0,0-.15.16-.28.32-2.59,3-9.82,15.02-5.6,25.6,1.95,4.9,4.92,5.87,4.73,10.08-.13,2.71-1.3,4.96-3.48,7.35-6.04,6.63-11.39,11.16-13.16,12.77-9.71,8.85-11.75,21.18-12,22.84-.43,2.84-2.1,13.88,4.65,23.23.76,1.05,2.66,3.52,5.81,5.81,8.08,5.89,16.84,5.11,37.94,4.26,23.2-.94,21.58-.37,27.87-1.16,14.98-1.88,23.52-3.07,31.35-9.68,2.57-2.17,9.09-7.85,10.84-17.42.59-3.21,1.74-9.49-1.56-14.98-4.75-7.9-14.65-7.44-16.63-15.21-.21-.83-.65-2.63,0-4.65,1.44-4.45,6.6-4.77,10.06-7.74,6.01-5.16,6.34-17.83,2.32-25.94-4.1-8.28-9.86-7.99-16.65-18.58-3.44-5.38-5.1-10.48-5.95-13.84-15.34-1.21-30.69-2.42-46.03-3.63Z"/>
      <path class="cls-1" d="M8.07,37.18c.82,2.1,2.02,5.05,3.61,8.52,2.65,5.78,5.58,12.17,9.42,17.55,5.35,7.49,11.3,11.39,20.9,17.68,4.78,3.13,10.8,6.64,18.06,9.94,2.58-1.85,5.16-3.7,7.74-5.55-.74-1.27-1.86-3.2-3.23-5.55-10.36-17.89-10.04-18.06-11.87-20.65-7.45-10.55-18.05-15.3-22.32-17.16-9.01-3.92-17.17-4.7-22.32-4.77Z"/>
      <path class="cls-13" d="M86.98,84.93c-1.14-8.65-3.01-15.35-4.45-19.74-1.72-5.26-2.59-6.53-10.45-25.55-3.28-7.93-4.62-11.32-5.42-16.45-.93-5.95-.63-11.03-.19-14.52,8.15,4.79,20.59,14.03,26.71,29.42,4.04,10.16,4.5,20.95,4.84,28.84.32,7.57-.1,13.91-.58,18.39-3.48-.13-6.97-.26-10.45-.39Z"/>
      <path class="cls-5" d="M56.85,90.16c-5.61,3.28-8.51,6.3-10.06,8.13-5.98,7.04-7.47,14.6-8.13,18.19-2.1,11.41,1,20.6,2.32,24,5.24,13.44,15.54,20.17,19.74,22.84,5.43,3.44,19.35,12.28,36.39,7.74,18.53-4.93,26.3-21.85,27.87-25.55,7.6-17.9.81-34.05-.77-37.55-1.56-3.45-10.02-21.04-29.42-25.94-16.77-4.23-30.58,3.83-37.94,8.13Z"/>
      <path class="cls-11" d="M84.5,111.1c3.64,7.98,1.44,26.6-2.04,28.19-2.91,1.33-18.82-1.91-22.46-9.9s-5.37-26.22,2.61-29.86c7.98-3.64,18.25,3.59,21.89,11.57Z"/>
      <path class="cls-4" d="M62.27,137c-3.46-1.31-5.47-2.21-8.9-2.71-2.92-.42-6.85-.94-11.23.77-1.02.4-7.2,2.93-8.9,8.52-.54,1.77-.67,3.97,0,4.26,1.03.44,3.48-3.87,4.26-3.48,1.02.5-2.41,8.27-.77,9.29,1.04.65,3.26-1.95,4.26-1.26,1.04.72-1.04,3.73,0,7.55.62,2.28,2.18,4.17,2.81,3.97.65-.2-.1-2.7.77-3.19,1.08-.62,3.6,2.42,5.56,4.15,5.86,5.17,14.14,5.51,19.62,5.85,2.09.13,4.12.1,8.34.48,3.81.34,5.75.49,7.14,1.07,2.1.89,3.43,2.08,6.07,2.28,1.21.09,2.09-.09,3.27-.29,1.67-.29,3.76-.99,8.15-3,11.07-5.07,13.65-1.85,18.77-6.39,4.84-4.28,6.12-10.32,7.74-9.87.81.22,1.07,1.89,1.16,3.29.21-2.13.67-3.66,1.16-3.68.48-.01,1.01,1.4,1.35,3.29-.72-8.84-.5-10.6-.19-10.65.61-.09,2.07,7.09,2.9,6.97.58-.09,1-3.7.05-7.36-1.12-4.28-3.56-6.48-2.95-7.15.85-.94,5.95,2.79,6.4,2.21.48-.61-5.91-4.38-9.32-11.25-3.54-7.14-2.41-14.67-2.81-14.66-.38,0,.96,6.74-2.4,12.86-2.79,5.09-8.65,9.45-12.58,8.13-1.67-.56-1.53-1.63-3.48-3.1-4.39-3.3-11.42-2.63-16.06-.39-6.01,2.9-4.5,6.74-9.29,8.52-3.86,1.43-9.54-.72-20.9-5.03Z"/>
      <line class="cls-2" x1="116.99" y1="146.84" x2="114.02" y2="146.7"/>
      <path class="cls-2" d="M83.84,144.8c-.84.83-1.68,1.65-2.52,2.48,1.45.57,3.56,1.49,6,2.9,2.42,1.4,2.47,1.72,3.48,1.94,3.29.68,4.63-2.34,8.32-1.94,1.75.19,1.63.89,4.26,1.35,1.25.22,3.02.53,5.03,0,.44-.12,5.25-1.46,5.61-4.84.16-1.48-.59-2.74-1.16-3.48"/>
      <path class="cls-3" d="M80.91,116.68c4.06,5.24,4.49,20.65,2.21,22.42-1.91,1.48-17.11-2.47-21.17-7.7s-3.11-12.77,2.12-16.84,12.77-3.11,16.84,2.12Z"/>
      <path class="cls-2" d="M78.85,148.64c.82-.45,1.64-.91,2.46-1.36"/>
      <path class="cls-8" d="M97.01,140.15c-.52-.9-1.91-3.26-.97-5.03,1.45-2.72,7.17-1.72,8.13-1.55,1.97.35,5.11.9,5.9,3,1.05,2.81-2.81,7.94-6.48,7.94-2.03,0-6.26-3.81-6.58-4.35Z"/>
      <path class="cls-9" d="M90.8,152.12c-.77.7.47,3.23,1.21,4.74.96,1.96,1.44,2.93,2.32,3.29,1.18.48,1.78-.33,4.11-.03,1.36.18,1.54.51,2.18.32,1.1-.33,1.31-1.52,2.32-3.48,1.69-3.28,3.37-4.42,2.9-5.13-.28-.42-.96-.14-2.46-.29-2.49-.24-2.48-1.2-4.26-1.35-2.95-.25-3.96,2.3-7.13,1.86-.46-.07-.9-.19-1.2.08Z"/>
      <path class="cls-14" d="M100.01,150.89c-.52,3.08-1.05,6.15-1.57,9.23"/>
      <path class="cls-9" d="M69.74,170.71c-.74,1.59-1.59,3.53-2.46,5.76-1.2,3.09-1.98,5.56-2.32,6.68-1.68,5.5-2.52,8.26-2.54,10.81,0,.82.05,8.54,5.4,13.56,2.21,2.08,2.64,1.16,9.29,4.96,4.75,2.71,7.17,4.12,9.46,6.77,2.98,3.44,4.12,6.91,4.72,8.8,0,0,1.42,4.48.71,9.29-.1.71-.28,1.57-.61,1.61-.73.08-1.82-3.76-1.77-3.78.03-.01.52,1.06.83,2.31,0,0,.25,1.01.31,1.96.07,1.12-.02,4.04-2.1,6.27-.51.55-2.31,2.48-3.64,1.99-2.22-.82-1.64-7.89-1.75-7.89-.06,0-.07,1.79-.09,3.01-.04,2.5-.1,2.84-.37,3.03-.83.61-2.85-.63-4-1.69-2.21-2.03-2.69-4.73-2.72-4.95-.42-2.63.75-3.53-.13-5.24-.79-1.53-2.43-2.15-2.9-2.32-1.34-.5-2.23-.27-4.54-.12-4.53.29-5-.34-5.66.2-2.07,1.7,1.42,8.86,4.8,16.91,4.41,10.5,6.61,15.75,7.26,20.13.9,6.07-.2,15.01-9.67,27.16,4.72-.11,9.51-.27,14.35-.46,3.32-.13,6.61-.29,9.88-.46,4.65-1.79,14.92-6.56,20.31-17.22,3.04-6.01,3.28-11.68,3.77-23.03.34-7.81-.23-14.75-1.52-14.91-1.08-.13-2.28,4.55-3.27,4.33-.94-.21-.83-4.69-.88-4.69-.03,0,.19,1.19-.1,2.47-.04.17-.86,3.56-3.57,4.11-1.67.34-3.01-.62-3.14-.71-1.23-.9-1.52-2.23-1.59-2.56-.25-1.21.09-2.37.49-3.73.05-.18.28-.93.47-1.95.1-.53.15-.93.13-.93-.07-.01-.71,5.64-1.68,5.68-.79.03-1.97-3.73-2.09-7.45-.05-1.7.02-6.53,4.45-14.13,3.71-6.37,4.88-5.05,8.09-10.68.59-1.03,4.26-7.63,4.82-16.61.33-5.3-.66-7.75-.97-8.47-1.06-2.46-2.25-3.17-4.09-6.03-1.16-1.8-2.63-4.54-3.69-8.38l-35.7.6Z"/>
      <path class="cls-12" d="M81.65,121.13c3.22,4.15,3.56,16.36,1.75,17.77-1.51,1.18-13.56-1.96-16.78-6.11s-2.47-10.12,1.68-13.34c4.15-3.22,10.12-2.47,13.34,1.68Z"/>
      <path class="cls-10" d="M82.25,128.26c1.95,2.51,2.15,9.89,1.06,10.74-.92.71-8.19-1.18-10.14-3.69s-1.49-6.12,1.02-8.06,6.12-1.49,8.06,1.02Z"/>
      <circle class="cls-16" cx="75.03" cy="134.81" r="1.93"/>
      <path class="cls-11" d="M105.83,116.92c-.91,6.16,3.92,18.46,6.47,18.88,2.14.35,11.88-4.92,12.8-11.08s-1.29-18.96-7.15-19.92c-5.85-.96-11.21,5.96-12.12,12.12Z"/>
      <path class="cls-3" d="M109.18,120.04c-1.69,4.36.85,14.98,2.66,15.75,1.51.65,10.67-4.97,12.35-9.33,1.69-4.36-.31-9.33-4.45-11.1s-8.87.32-10.56,4.68Z"/>
      <path class="cls-12" d="M109.51,123.23c-1.34,3.46.67,11.87,2.1,12.48,1.2.51,8.46-3.94,9.79-7.4s-.24-7.4-3.53-8.8-7.03.26-8.37,3.71Z"/>
      <path class="cls-10" d="M110.42,128.22c-.81,2.09.41,7.17,1.27,7.54.72.31,5.11-2.38,5.92-4.47s-.15-4.47-2.13-5.32-4.25.16-5.06,2.24Z"/>
      <ellipse class="cls-16" cx="112.61" cy="132.59" rx="1.3" ry="1.37"/>
      <path class="cls-15" d="M69.74,170.71c-2.55,5.48-4.16,10.25-5.19,13.8-1.73,5.95-2.59,9-1.94,12.77.19,1.12,1.21,6.4,5.61,10.65,4.51,4.35,8.1,3.29,13.35,6.77,1.92,1.27,7.25,5.52,9.48,12.58,1.79,5.65,1.07,11.56.32,11.66-.64.09-1.81-4.09-1.89-4.06-.06.02,1.55,2.85,1.23,5.94-.41,3.86-3.78,7.43-5.47,6.98-2.01-.53-1.71-8.33-1.94-8.32-.07,0-.09,1.45-.13,2.76-.08,3.21-.18,3.46-.39,3.6-.95.66-4.26-1.11-5.88-4.06-2.04-3.73.24-6.41-1.42-8.68-2.02-2.76-7.21-1.27-11.81-1.35-5.12-.1-12.19-2.21-20.71-11.1"/>
      <path class="cls-15" d="M112.74,183.91c.92,2.93,2.09,8.11,1.01,14.32-.9,5.19-2.97,8.97-4.39,11.35-4.25,7.16-6.25,6.63-9.29,12.77-2.76,5.57-2.97,9.76-2.97,11.48,0,3.87.99,8.01,1.81,8,.94-.01,1.68-5.68,1.68-5.68,0,0-.37,1.72-.6,2.88-.42,2.08-.62,3.14-.49,3.73.34,1.55,1.78,3.3,3.61,3.42,1.63.11,2.86-1.24,3.1-1.5,1.87-2.05,1.58-5.23,1.69-5.23.14,0-.52,4.44.39,4.79.68.26,2.36-1.67,6.09-8.52"/>
    </g>
  </g>
</svg>