<?xml version="1.0" encoding="UTF-8"?>
<svg id="_Слой_2" data-name="Слой 2" xmlns="http://www.w3.org/2000/svg" xmlns:xlink="http://www.w3.org/1999/xlink" viewBox="0 0 234.88 208.35">
  <defs>
    <style>
      .cls-1 {
        fill: url(#_Безымянный_градиент_188);
      }

      .cls-1, .cls-2, .cls-3, .cls-4, .cls-5, .cls-6, .cls-7, .cls-8, .cls-9 {
        stroke: #1d1d1b;
        stroke-linecap: round;
        stroke-linejoin: round;
      }

      .cls-2 {
        fill: none;
      }

      .cls-3 {
        fill: #c87530;
      }

      .cls-4 {
        fill: url(#_Безымянный_градиент_41);
      }

      .cls-5 {
        fill: url(#_Безымянный_градиент_152);
      }

      .cls-6 {
        fill: url(#_Безымянный_градиент_188-2);
      }

      .cls-7 {
        fill: url(#_Безымянный_градиент_320);
      }

      .cls-10 {
        fill: url(#_Безымянный_градиент_206-2);
      }

      .cls-8 {
        fill: #7e5239;
      }

      .cls-11 {
        fill: url(#_Безымянный_градиент_206);
      }

      .cls-9 {
        fill: #c77833;
      }
    </style>
    <radialGradient id="_Безымянный_градиент_188" data-name="Безымянный градиент 188" cx="80.31" cy="19.17" fx="80.31" fy="19.17" r="13.91" gradientUnits="userSpaceOnUse">
      <stop offset="0" stop-color="#c27732"/>
      <stop offset="1" stop-color="#b06725"/>
    </radialGradient>
    <radialGradient id="_Безымянный_градиент_188-2" data-name="Безымянный градиент 188" cx="137.26" cy="19.17" fx="137.26" fy="19.17" r="13.91" gradientTransform="translate(299.2) rotate(-180) scale(1 -1)" xlink:href="#_Безымянный_градиент_188"/>
    <radialGradient id="_Безымянный_градиент_152" data-name="Безымянный градиент 152" cx="116.65" cy="124.09" fx="116.65" fy="124.09" r="21.56" gradientUnits="userSpaceOnUse">
      <stop offset="0" stop-color="#ad6439"/>
      <stop offset="1" stop-color="#995a22"/>
    </radialGradient>
    <radialGradient id="_Безымянный_градиент_320" data-name="Безымянный градиент 320" cx="119.72" cy="77.57" fx="119.72" fy="77.57" r="27.55" gradientUnits="userSpaceOnUse">
      <stop offset="0" stop-color="#c4762d"/>
      <stop offset="1" stop-color="#814d18"/>
    </radialGradient>
    <radialGradient id="_Безымянный_градиент_41" data-name="Безымянный градиент 41" cx="119.72" cy="55.72" fx="119.72" fy="55.72" r="11.67" gradientUnits="userSpaceOnUse">
      <stop offset="0" stop-color="#7c4927"/>
      <stop offset="1" stop-color="#683d1e"/>
    </radialGradient>
    <radialGradient id="_Безымянный_градиент_206" data-name="Безымянный градиент 206" cx="109.46" cy="35.54" fx="109.46" fy="35.54" r="6.92" gradientTransform="translate(16.63) scale(.86 1)" gradientUnits="userSpaceOnUse">
      <stop offset=".6" stop-color="#1d1d1b"/>
      <stop offset=".77" stop-color="#1d1d1b" stop-opacity=".68"/>
      <stop offset="1" stop-color="#1d1d1b" stop-opacity="0"/>
    </radialGradient>
    <radialGradient id="_Безымянный_градиент_206-2" data-name="Безымянный градиент 206" cx="134.86" fx="134.86" xlink:href="#_Безымянный_градиент_206"/>
  </defs>
  <g id="_Слой_1-2" data-name="Слой 1">
    <g>
      <line class="cls-2" x1="125.61" y1="78.8" x2="125.6" y2="78.8"/>
      <line class="cls-2" x1="147.84" y1="87.45" x2="147.83" y2="87.45"/>
      <path class="cls-8" d="M160.46,98.38c2.11,2.28,24.31,27.08,16.98,59.53-5.88,26.05-29.06,49.32-58.83,49.93-31.95.65-57.19-25.21-61.94-52.64-1.24-7.14-.79-13.42-.56-15.89,2.11-22.85,16.04-38.17,21.96-43.98,4.23,3.57,18.8,14.96,40.8,15.73,21.84.77,37.08-9.42,41.59-12.68Z"/>
      <path class="cls-2" d="M134.74,81h-.02"/>
      <path class="cls-8" d="M100.28,20.47c-11.44,3.27-21.24,9.41-28.1,17.37-4.98.09-9.17-1.52-11.45-4.87-4.73-6.95.5-18.76,11.7-26.38,11.19-7.62,24.1-8.16,28.83-1.21,2.72,4,2.14,9.6-.98,15.09Z"/>
      <path class="cls-1" d="M93.46,20.06c-7.8,2.23-14.48,6.42-19.16,11.84-3.4.06-6.25-1.04-7.81-3.32-3.23-4.74.34-12.79,7.98-17.99,7.63-5.2,16.43-5.56,19.66-.82,1.85,2.73,1.46,6.55-.67,10.29Z"/>
      <path class="cls-8" d="M141.97,20.47c11.44,3.27,21.24,9.41,28.1,17.37,4.98.09,9.17-1.52,11.45-4.87,4.73-6.95-.5-18.76-11.7-26.38-11.19-7.62-24.1-8.16-28.83-1.21-2.72,4-2.14,9.6.98,15.09Z"/>
      <path class="cls-6" d="M148.79,20.06c7.8,2.23,14.48,6.42,19.16,11.84,3.4.06,6.25-1.04,7.81-3.32,3.23-4.74-.34-12.79-7.98-17.99-7.63-5.2-16.43-5.56-19.66-.82-1.85,2.73-1.46,6.55.67,10.29Z"/>
      <path class="cls-2" d="M104.9,79.99h-.01"/>
      <path class="cls-8" d="M73.92,36.68c-2.59,2.99-10.51,12.9-10.54,27.19-.04,16.81,10.71,27.82,14.69,31.46,10.57,9.66,25.93,15.74,43.02,15.74,15.22,0,29.06-4.82,39.37-12.69,11.29-8.61,18.34-20.89,18.34-34.51,0-7.9-2.37-15.34-6.56-21.89h-.01c-5.71-8.91-14.8-16.14-25.88-20.56-11.2-4.47-20.89-4.75-25.26-4.75-7.95,0-14.52,1.36-19.07,2.64-3.87,1.01-9.1,2.82-14.7,6.18-6.24,3.74-10.61,8.01-13.4,11.19Z"/>
      <path class="cls-8" d="M56.46,136.48c-8.84,15.79-15.62,18.96-20.3,18.71-7.31-.38-9.79-9.11-17.42-9.29-8.24-.2-17.49,9.7-18.19,17.81-1.17,13.54,20.87,29.07,54.97,39.48l19.58-13.39"/>
      <path class="cls-8" d="M178.41,138.83c8.84,15.79,15.62,18.96,20.3,18.71,7.31-.38,9.79-9.11,17.42-9.29,8.24-.2,17.49,9.7,18.19,17.81,1.17,13.54-20.87,29.07-54.97,39.48l-19.58-13.39-1.3-1.39"/>
      <path class="cls-8" d="M87.31,140.12c-.08-.16-.15-.32-.23-.48-.29-.59-.6-1.24-.95-2-.84-1.81-1.87-4.19-3.19-7.5-5.29-13.29-6.26-19.41-6.6-23.61-.32-3.95-.18-7.25,0-9.49-3.84,3.2-13.19,11.91-16.59,26.34-1.64,6.93-1.38,12.99-.81,17.21.12,1.48.43,4.22,1.41,7.47.58,1.94,1.41,4.06,2.57,6.2.02.03.03.05.05.08"/>
      <path class="cls-8" d="M147.74,143.21s.02-.05.04-.08c.43-.79.93-1.7,1.54-2.86.02-.04.04-.07.06-.11.96-1.85,2.18-4.35,3.81-8.01,5.81-13.08,7.01-19.15,7.52-23.34.48-3.94.46-7.23.37-9.48,4.07,3.98,12.83,13.7,15.43,28.63,1.06,6.1.82,11.46.25,15.57-.17,1.43-.57,4.06-1.62,7.18h-.01c-.63,1.88-1.5,3.94-2.7,6.02l-.09.15"/>
      <path class="cls-9" d="M81.94,98.54c-.47,2.22-.96,5.39-.94,9.2.01,2.76.31,9.92,4.65,19.55,3.31,7.35,11.74,26.06,28.26,28.65,1.1.17,4.93.69,9.68-.39,17.33-3.95,24.79-24.21,26.71-29.42,1.79-4.87,4-12.89,3.56-23.39-5.6,3.04-17.24,8.37-32.75,8.33-19.9-.05-34-8.91-39.15-12.53Z"/>
      <path class="cls-5" d="M93.32,105.12c-.29,1.54-.59,3.73-.53,6.36.04,1.72.25,6.56,3.03,12.73,2.16,4.79,7.64,16.98,18.41,18.66.72.11,3.21.45,6.3-.25,11.09-2.52,15.96-15.38,17.4-19.16,1.22-3.21,2.71-8.4,2.59-15.2-5.05,1.51-12.53,3.1-21.63,2.8-11.37-.38-20.24-3.55-25.56-5.94Z"/>
      <path class="cls-3" d="M60.34,148.06c.45,1.69,1.21,3.88,2.57,6.2,5.59,9.54,18.43,16.45,24.18,12.89,5.18-3.21,5.94-15.79-.97-29.51-1.07,1.79-4.16,6.43-10.26,9.19-7.15,3.24-13.66,1.74-15.53,1.23Z"/>
      <path class="cls-3" d="M175.13,150.71c-.5,1.7-1.34,3.88-2.8,6.17-5.87,9.17-19,15.56-24.76,11.56-5.04-3.5-5.55-15.75,1.79-28.28,1.1,1.8,4.3,6.48,10.54,9.24,6.97,3.09,13.26,1.8,15.22,1.31Z"/>
      <path class="cls-7" d="M106.75,54.9c-11.03,3.7-18.72,12-18.72,21.63,0,13.09,14.19,23.71,31.69,23.71,12.23,0,22.85-5.19,28.11-12.79h.01c2.27-3.27,3.56-6.98,3.56-10.92,0-9.26-7.09-17.28-17.44-21.17"/>
      <ellipse class="cls-4" cx="119.72" cy="55.72" rx="13.65" ry="9.29"/>
      <ellipse class="cls-11" cx="110.23" cy="35.54" rx="5.92" ry="6.92"/>
      <ellipse class="cls-10" cx="131.96" cy="35.54" rx="5.92" ry="6.92"/>
      <path class="cls-2" d="M120.34,65.01c.35.9,1.8,4.84,0,9.1-1.66,3.95-5.71,7.22-10.55,7.16-5.3-.07-8.48-4.09-8.9-4.65"/>
      <path class="cls-2" d="M121.58,65.08c-.34,1.07-1.45,4.93.4,9.02,1.66,3.69,5.55,7.22,10.55,7.16,5.27-.06,8.47-4.08,8.9-4.65"/>
    </g>
  </g>
</svg>