<?xml version="1.0" encoding="UTF-8"?>
<svg id="_Слой_2" data-name="Слой 2" xmlns="http://www.w3.org/2000/svg" viewBox="0 0 185.07 170.95">
  <defs>
    <style>
      .cls-1, .cls-2 {
        fill: #1d1d1b;
      }

      .cls-3, .cls-4 {
        fill: #fff;
      }

      .cls-5 {
        fill: #342f29;
      }

      .cls-5, .cls-6, .cls-4, .cls-2, .cls-7, .cls-8 {
        stroke: #1d1d1b;
        stroke-miterlimit: 10;
      }

      .cls-6 {
        fill: #555049;
      }

      .cls-7 {
        fill: #b9b5b2;
      }

      .cls-8 {
        fill: none;
      }
    </style>
  </defs>
  <g id="_Слой_1-2" data-name="Слой 1">
    <g>
      <path class="cls-7" d="M75.58,148.18c-.56.27-2.06,1.04-4.45,3.1-3.79,3.26-9.88,8.5-9,14.37.13.87.39,2.62,1.74,3.58,2.78,1.98,7.87-1.01,12.77-3.97,7.23-4.36,13.27-8,12.87-12.68-.22-2.56-2.3-4.68-4.16-5.61-3.6-1.79-7.69.19-9.77,1.21Z"/>
      <path class="cls-7" d="M119.62,152.1c-.02,2.93,2.6,5.25,7.84,9.77,4.46,3.85,7.48,6.39,12.29,7.65,2.6.68,6.69,1.74,8.23-.1,2.71-3.25-4.58-13.15-5.81-14.81-3.41-4.63-6.36-6.58-7.45-7.26-3.08-1.91-6.2-3.84-9.58-2.71-3.08,1.03-5.5,4.3-5.52,7.45Z"/>
      <path class="cls-7" d="M69.43,141.45c-1.86,3.02-6.27,3.4-9.84,3.7-6.46.56-12.14-1.17-16.44-3.2-3.38-1.59-5.9-3.36-7.27-4.34-2.53-1.81-4.74-3.8-6.67-5.84-5.14-5.42-8.28-11.22-10.1-15.25h0c-.88-1.97-1.44-3.51-1.75-4.37-.82-2.26-1.58-4.47-2.25-6.51-2.05-6.3-3.3-11.03-3.3-11.03-.89-3.39-1.32-5.45-2.14-7.55-.32-.85-.71-1.7-1.21-2.65-.49-.93-1.27-2.3-2.22-3.88-1-1.66-2.16-3.55-3.33-5.41-2.02-3.2-2.68-4.12-2.32-4.64,1.04-1.54,9.47,2.46,12.28,3.83.13.06.25.12.36.17,2.8,1.36,5.48,2.66,8.03,3.95,4.24,2.15,8.11,4.28,11.52,6.58,2.32,1.57,4.42,3.22,6.29,5.02,2.7,2.6,4.91,5.52,6.55,8.96.23.49.46.99.69,1.51.9,2.06,1.87,4.41,3.81,7.35.28.43.59.88.92,1.34,3.36,4.68,5.63,5.83,8.9,9.29,5.74,6.05,12.9,17.41,9.49,22.97Z"/>
      <path class="cls-5" d="M69.43,141.45c-1.86,3.02-6.27,3.4-9.84,3.7-6.46.56-12.14-1.17-16.44-3.2-.96-1.69-1.07-3.57-1.3-7.34-.41-6.89,1.22-12.31,2.19-14.97,1.6-4.4,3.33-9.18,6.08-11.79.28.43.59.88.92,1.34,3.36,4.68,5.63,5.83,8.9,9.29,5.74,6.05,12.9,17.41,9.49,22.97Z"/>
      <path class="cls-5" d="M46.31,100.5c-.37.24-.72.43-1,.6-8.64,4.99-15.71,18.61-16.07,28.93-.02.57-.02,1.16-.03,1.74-5.14-5.42-8.28-11.22-10.1-15.25h0c.14-.39.29-.78.45-1.2.89-2.24,3.46-8.31,9.1-15.19,1.89-2.31.48-.26,9.48-9.19.34-.33.65-.64.93-.91,2.7,2.6,4.91,5.52,6.55,8.96.23.49.46.99.69,1.51Z"/>
      <path class="cls-5" d="M21.26,78.43c-1.73,1.01-3.68,2.48-6.34,4.47-2.35,1.77-4.04,3.04-5.25,4.16.82,2.1,1.25,4.16,2.14,7.55,0,0,1.25,4.73,3.3,11.03,1.23-2.54,3.05-6.54,7.36-11.41,2.54-2.88,5-5.66,9.08-8.43.43-.29.84-.55,1.23-.79"/>
      <path class="cls-5" d="M12.87,74.31c-1.18.54-2.38,1.31-3.53,2.43-1.11,1.09-1.99,2.33-3.1,3.79-1-1.66-2.16-3.55-3.33-5.41-2.02-3.2-2.68-4.12-2.32-4.64,1.04-1.54,9.47,2.46,12.28,3.83Z"/>
      <path class="cls-7" d="M71.79,77.55c-2.25,3.44-3.7,6.22-4.55,8.23-1,2.36-2.14,5.63-2.9,9.68-2.19.69-5.38,2.05-8.03,4.94-7.56,8.22-3.81,21.18-3.19,23.32,3.93,13.59,16.28,20.16,21.26,22.81,11.89,6.32,23.09,6.14,30.8,6.01,6.65-.11,15.19-.25,24.86-4.48,14.14-6.18,29.35-20.53,28.36-34.79-.14-2.07-.65-9.59-6.39-14.23-2.2-1.78-4.47-2.6-6-3,1.16-.54,2.81-1.35,4.74-2.42,4.26-2.36,9.4-5.19,14.32-10.26,2.41-2.48,6.06-6.31,7.97-12.35.98-3.09,1.66-7.27.55-7.77-1.24-.57-3.09,4.23-8.52,7.37-1.63.94-3.7,1.81-10.97,2.82-5.43.76-9.45,1.32-14.97,1.29-25.14-.12-51.63-12.26-64.52-.52-.68.62-1.76,1.71-2.84,3.35Z"/>
      <path class="cls-3" d="M88.75,80.17c-3.34,3.13-4.82,7.03-5.61,9.1-2.5,6.58-1.89,12.3-1.55,15.1,1.19,9.89,6.31,16.82,7.94,18.97,3.33,4.4,4.63,4.19,7.1,8.52,2.64,4.63,4.21,10.22,5.81,10,.66-.09,1.1-1.16,1.42-1,.49.24-.52,2.74.32,3.29.16.1.33.1.45.1,2.05-.06,3.88-5.3,4.94-5.02.29.08.24.49.42.56,1.52.66,21.01-22.88,16.23-46.45-.77-3.81-1.98-9.36-6.68-13.55-8.21-7.31-23.03-6.86-30.77.39Z"/>
      <path class="cls-7" d="M71.37,25.73c-6.6-10.88-7.69-20.91-3.87-24,3.8-3.07,12.76.43,15.61,1.55,3.75,1.47,6.57,3.33,8.43,4.74-6.72,5.9-13.45,11.81-20.17,17.71Z"/>
      <path class="cls-5" d="M74.47,21.47c-4.72-5.24-5.22-11.27-2.97-13.42,2.25-2.15,7.83-.94,11.23,1.42.77.53,1.36,1.08,1.81,1.55-3.35,3.48-6.71,6.97-10.06,10.45Z"/>
      <path class="cls-7" d="M139.33,25.73c6.6-10.88,7.69-20.91,3.87-24-3.8-3.07-12.76.43-15.61,1.55-3.75,1.47-6.57,3.33-8.43,4.74,6.72,5.9,13.45,11.81,20.17,17.71Z"/>
      <path class="cls-5" d="M136.23,21.47c4.72-5.24,5.22-11.27,2.97-13.42-2.25-2.15-7.83-.94-11.23,1.42-.77.53-1.36,1.08-1.81,1.55,3.35,3.48,6.71,6.97,10.06,10.45Z"/>
      <path class="cls-7" d="M91.61,5.54c-3.8,1.3-9.4,4.05-22.72,21.04-17.32,22.09-16.37,28.31-15.82,30.57.32,1.32,1.33,4.68,6.26,9.4,14.33,13.72,35.52,13.72,45.4,13.73,9.27,0,31.17-.28,47.2-14.4,5.07-4.46,6.04-7.21,6.39-8.52.94-3.48.61-8.31-22.06-35.42-6.78-8.11-11-12.75-18.19-15.68-5.78-2.35-11.16-2.65-12.77-2.71-.71-.03-7.21-.22-13.67,1.99Z"/>
      <path class="cls-4" d="M84.76,21.16c-2.35.71-4.75,2.08-9.68,7.74-6.25,7.19-10.19,11.71-12.58,19.35-1.34,4.3-3.16,10.41-.58,16.84,1.03,2.57,2.56,4.47,2.71,4.65,2.15,2.59,4.64,3.91,6.67,4.84,8.18,3.73,17.35,4.83,19.44,5.07,7.38.84,12.98.71,16.97.6,10.23-.28,16.74-1.59,19.31-2.16,5.52-1.22,8.16-2.35,9.07-2.76,3.45-1.54,8.17-3.66,10.79-7.52,4.05-5.98,1.46-13.9-.58-20.52-1.26-4.1-5.16-14.69-15.48-21.87-3.86-2.69-8.28-5.76-12.77-4.44-3.83,1.12-6.2,4.98-9.68,10.64-1.93,3.14-3.23,5.93-4.06,7.94-.67-2.06-1.68-4.94-3.1-8.32-2.05-4.9-3.11-7.38-4.84-8.71-4.44-3.42-10.79-1.6-11.61-1.35Z"/>
      <path class="cls-5" d="M97.28,34.3c-6.05-3.21-12.6-.04-15.87,1.55-2.14,1.04-10.84,5.26-12.39,14.13-.17.97-1.54,8.85,3.68,12.97,2.94,2.32,7.42,3,10.84,1.55,4.98-2.12,4.34-7.31,9.87-9.29,2.58-.93,3.85-.2,6.39-1.74.54-.33,3.41-2.14,4.45-5.23,1.69-5-2.07-11.34-6.97-13.94Z"/>
      <path class="cls-5" d="M115.18,33.43c-3.37,1.37-5.5,4.25-6.29,5.32-.99,1.33-2.63,3.63-3,6.97-.11,1.01-.63,5.76,2.03,7.74,1.65,1.23,2.86.15,5.61.97,3.11.92,3.37,2.83,7.26,6.1,3.01,2.53,6,5.04,9.97,5.03,4.21-.01,7.12-2.86,7.55-3.29,4.28-4.31,3.23-10.62,3-12-1.24-7.48-7.52-11.54-10.16-13.26-2.67-1.73-9.56-6.19-15.97-3.58Z"/>
      <path class="cls-6" d="M90.21,6.07c1.49,2.11,3.47,5.18,5.38,9.09,1.73,3.54,6.06,12.6,6.64,24.03.7,13.68-4.23,25.81-.93,27.4.49.24,1.91.6,3.48.65.85.02,2.69.07,3.68-.52,2.42-1.43.75-7.23-.13-17.94-.38-4.66-.6-7.43-.35-11.18.15-2.27.63-7.46,2.71-13.74,2.52-7.62,6.06-12.84,7.55-14.9.6-.84,1.13-1.51,1.49-1.97-2.9-1.33-7.93-3.21-14.46-3.45-6.75-.25-12.05,1.36-15.06,2.52Z"/>
      <circle class="cls-2" cx="115.86" cy="47.14" r="4.74"/>
      <circle class="cls-2" cx="93.79" cy="47.14" r="4.74"/>
      <circle class="cls-3" cx="92.65" cy="44.64" r="1.2"/>
      <circle class="cls-3" cx="114.66" cy="44.64" r="1.2"/>
      <path class="cls-5" d="M73.12,116.92c-.24.3,1.77,2.67,4.65,4.9,0,0,9.38,7.3,18.58,5.42.19-.04,1.65-.34,1.74-.99.07-.5-.71-.87-.58-1.33.13-.45.92-.28,1.23-.85.28-.5-.19-.89.1-1.55.22-.52.58-.45.68-.85.16-.68-.86-1.1-.8-1.89.06-.69.9-.85.85-1.28-.07-.6-1.72-.89-3.6-1.19-3.57-.57-3.67-.47-4.36-.64-3.56-.85-5.86-4.52-8.03-7.97-1.5-2.38-2.29-4.3-2.81-4.15-.83.24.46,5.37-.92,5.95-1.1.47-3.07-2.34-3.68-1.94-.71.47,1.64,4.57.73,5.27-.68.52-2.63-1.25-3.05-.82-.55.55,2.32,3.89,1.74,4.5-.42.44-2.25-.88-2.46-.62Z"/>
      <path class="cls-5" d="M154.41,74.08c-.3-.96,12.24-5.72,14.52-10.84.36-.81.94-2.12.44-3.34-.5-1.22-1.73-1.46-1.94-2.76-.13-.84.23-1.75.58-1.79.62-.07.94,2.56,2.18,2.71.42.05.86-.19,1.11-.48,1-1.13-.71-3.01.19-4.94.36-.75,1.11-1.5,1.55-1.35,1.07.34-.22,5.67,1.11,6.15.36.13.77-.15.97-.29,1.15-.79.45-2.29,1.55-3.77.48-.65,1.44-1.49,2.13-1.21.58.24.82,1.24.73,2.03-.21,1.83-2.17,2.42-1.94,3.48.14.63,1.01,1.2,1.65,1.06,1.14-.25.85-2.63,2.56-3.48.44-.22,1.15-.4,1.5-.1.46.4.27,1.58-.29,2.37-.81,1.15-2.01.91-2.37,1.89-.26.7.07,1.63.48,1.74.54.15.97-1.15,2.37-1.45.22-.05.75-.16.97.1.33.38-.19,1.34-.53,1.84-.92,1.32-2.17,1.52-3.34,2.13-.83.44-1.18.86-4.21,5.47-2.05,3.11-3.07,4.67-3.48,5.32-1.8,2.85-2.47,4.04-4.02,5.52-1.4,1.34-3.09,2.51-3.48,2.18-.39-.33.67-2,.34-2.23-.26-.18-.99.85-2.27,1.55-1.66.91-3.86,1.04-4.16.44-.48-.96,3.75-3.81,3.44-4.26-.17-.24-1.42.65-3.53.92-1.12.15-3.17.21-3.39-.44-.35-1.02,4.23-3.05,3.92-3.92-.31-.86-5.14.34-5.32-.24Z"/>
      <path class="cls-8" d="M93.99,71.63c1.74-1.48,3.16-2.68,3.17-2.66.01.01-1.21.68-1.23,1.48-.04,1.62,4.83,3.68,9.48,3.68,4.84,0,9.78-2.25,9.68-3.77-.05-.7-1.16-1.26-1.16-1.26,0,0,1.4,1.12,3.12,2.52"/>
      <path class="cls-1" d="M105.16,58.76c-2.84,0-4.93,0-6.03,1.48-1.23,1.66-.4,4.06-.1,4.94.77,2.22,2.8,4.73,5.48,4.94.14.01.75.05,1.52-.13,2.82-.66,4.17-3.41,4.55-4.19.6-1.23,1.85-3.78.71-5.52-.99-1.51-3.21-1.51-6.13-1.52Z"/>
    </g>
  </g>
</svg>