<?xml version="1.0" encoding="UTF-8"?>
<svg id="_Слой_2" data-name="Слой 2" xmlns="http://www.w3.org/2000/svg" viewBox="0 0 173.09 188.86">
  <defs>
    <style>
      .cls-1 {
        fill: #f0ad36;
      }

      .cls-1, .cls-2, .cls-3, .cls-4, .cls-5 {
        stroke: #1d1d1b;
        stroke-miterlimit: 10;
      }

      .cls-2 {
        fill: #edaf35;
      }

      .cls-3 {
        fill: #fff;
      }

      .cls-4 {
        fill: #f7d940;
      }

      .cls-5 {
        fill: #1d1d1b;
      }
    </style>
  </defs>
  <g id="_Слой_1-2" data-name="Слой 1">
    <g>
      <path class="cls-4" d="M142.4,137.53c1.76-.23,3.91-1.34,7.25-6.51,3.29-5.09,5.48-8.48,5.98-13.42.22-2.17.04-3.9-4.13-16.26-2.98-8.85-3.86-10.83-5.48-16.52-2.53-8.82-2.74-12.17-2.39-15.35.46-4.14,1.83-7.4,2.9-9.48,1.61.09,3.23.17,4.84.26-.6,1.09-1.44,2.84-2,5.1-.98,3.93-.9,8.5,2.58,18.65,2.55,7.43,3.19,6.96,5.68,14.06,2.65,7.57,3.97,11.36,4,16.52.04,8.01-2.93,14.03-4.39,16.9-2.91,5.73-6.37,9.19-9.03,11.81-4.16,4.08-8.95,8.8-13.29,7.55-.19-.05-2.16-.65-3.03-2.39-1.88-3.74,2.51-10.51,6.97-11.16,1.54-.23,1.89.46,3.54.25Z"/>
      <path class="cls-1" d="M146.67,60c-2.14-.43-3.15-6.49-2.78-11.56.17-2.32.55-6.79,3.52-11.35,1.32-2.03,3.54-3.9,7.94-7.55,3.13-2.6,8.86-7.37,9.52-6.71.57.57-2.98,4.82-2.58,5.16.53.44,5.9-6.17,7.35-5.29,1,.6-1.3,3.88-1.23,8.97.09,5.86,3.22,6.86,3.94,13.68.32,3,.69,6.55-1.35,9.81-2.67,4.25-8.58,6.57-12.81,6-1.03-.14-4.3-.77-6.81-.9-1.48-.08-2.7-.14-2.7-.14-1.94-.1-1.94-.09-2-.11Z"/>
      <path class="cls-4" d="M55.46,134.07c4.78,22.43,6.07,28.51,6.06,28.52,0,0-.3-5.27-3.35-6.71-1.73-.82-4.17.06-9.03,1.81-2.87,1.03-4.85,1.98-4.77,2.19.07.22,2.17-.61,5.41-.45.51.03,1.41.08,2.46.32,3.49.79,5.86,3.01,5.81,3.1-.06.08-2.18-2.17-5.81-3.1-.88-.22-6.09-1.55-10.58,1.68-3.13,2.25-4.13,5.43-4.65,7.1-.44,1.42-1.47,4.88,0,8.39.66,1.56,1.94,3.44,2.71,3.23.79-.22.29-2.4,1.16-5.81.55-2.17,1.15-4.5,3.1-6.19,3.01-2.62,7.23-1.95,8-1.81,2.13.39,3.74,1.42,3.74,1.42,0,0-1.61-1.03-3.74-1.42-.66-.12-4.83-.88-8,1.81-2.16,1.83-2.69,4.29-3.1,6.19-.27,1.24-.8,3.88.26,6.97.42,1.24,1.36,3.99,4.13,5.68,3.12,1.9,7.62,1.87,10.06-.26,2.07-1.81,2.26-4.77,3.74-4.77.63,0,.85.53,1.55,1.03,1.56,1.11,3.56.67,10.19-1.29,5.1-1.51,5.79-1.81,6.45-2.71,1.52-2.06,1.05-4.79.77-5.94-.22-10.71-.43-21.42-.65-32.13.12,6.11.25,12.21.37,18.32q.18,8.79.18,8.79c-.04,2.95-.15,3.6.1,5.03.24,1.36.89,5.08,3.87,7.61,3.78,3.21,9.97,3.36,11.35,1.29.51-.77.44-1.94.65-1.94.23,0,.14,1.46.52,2.58.95,2.81,5.23,4.63,8.9,4.39.48-.03,4.49-.36,7.02-3.63,1.05-1.35,1.41-2.65,1.49-2.95.71-2.67,0-5.8-1.68-7.61-3.47-3.73-10.95-1.76-10.97-2.06,0-.18,2.61-.79,5.66-.24,1.82.33,3.75.68,5.31,2.3,1.91,1.99,2.61,5.23,1.68,7.61-.64,1.64-1.8,2.23-1.49,2.95.41.96,2.87.95,4.59.53.42-.1,5.08-1.33,6.06-5.29.99-3.99-2.6-7.33-3.74-8.39-2.59-2.4-5.55-3.1-5.55-3.1,1.56.49,3.61,1.4,5.55,3.1,1.65,1.45,3.39,2.97,3.65,5.24.17,1.54-.39,2.91.09,3.15.36.17,1.04-.42,1.42-.9,1.41-1.8.6-4.62.13-6.19-.45-1.51-1.55-5.14-5.03-8-4.78-3.93-10.8-3.69-14.89-3.53-4.23.16-7.94,1.15-7.95,1.07-.01-.06,2.09-.5,4.02-.9q.21-8.99.62-26.97-.41,17.98-.62,26.97c.89-.08,2.26-.18,3.93-.18,4.78.02,10.54.05,14.89,3.53,2.83,2.26,3.88,5.08,5.03,8,1.04,2.64.84,3.86.57,4.61-.32.85-.86,1.4-.7,1.58.22.24,1.41-.55,3.74-2.06,3.41-2.22,4.16-2.38,5.16-3.74.63-.85,1.48-2.02,1.29-3.35-.18-1.3-5.64-5.73-4.77-4,0,0,4.39,1.28,4.77,4,.2,1.39-.74,2.62-1.29,3.35-1.1,1.46-2.66,2.35-5.16,3.74-1.56.87-1.99.99-1.99,1.33-.01,1.16,4.1,3.1,7.54,2.02.8-.25,1.7-.91,3.49-2.24,2.49-1.84,3.74-2.76,4.64-3.96.63-.82,2.81-3.88,2.19-6.97-.81-4.07-5.81-6.06-5.81-6.06,0,0,5,1.99,5.81,6.06.63,3.16-1.56,6.12-2.19,6.97-3.3,4.45-8.38,5.13-8.13,6.19.18.77,2.93.88,5.03.52,3.9-.68,6.39-3.15,7.1-3.87.29-.29,5.92-6.24,4-13.55-.21-.78-1.11-4.22-4.13-6.58-8.54-6.67-25.64,1.86-25.81,1.29-.08-.27,3.88-1.89,8.19-2.85,2.61-.58,4.92-.82,6.77-.91-.06-.33-.08-.87-.14-1.53-.1-1.21,8.42-11.42,9.87-14.37.61-1.24,4.36-7.76,1.75-11.95-2.33-3.74-8.47-3.63-9.16-3.61-12.38.28-21.43,16.82-21.81,16.52-.19-.16,2.59-4.34,6.71-8.38,2.6-2.54,5.11-4.42,7.13-5.76-1.63-1.43-4.01-3.81-5.97-7.29-5.11-9.07-1.84-15.8-5.81-19.61-4.42-4.25-13.85-1.08-20.52,1.16-16.03,5.39-15.95,12.43-31.87,17.94-8.13,2.81-13.8,2.93-14.84,6.58-1.03,3.64,3.3,8.1,7.23,11.35Z"/>
      <path class="cls-1" d="M33.57,8.67c-.1.84-2.65.77-6.58,2.23-3.75,1.39-7.02,3.53-6.77,4.26.2.59,2.55-.07,2.81.58.37.93-4.3,2.6-7.94,6.97-2.42,2.91-4.23,6.83-3.29,7.74,1.16,1.12,5.95-2.82,6.58-2.13.66.73-7.47,6.31-12.97,15.77-3.93,6.76-6.07,14.73-4.26,15.87,1.9,1.2,7.3-5.69,8.81-4.65C12.49,57.08,0,78.66,2.21,80.09c.9.58,3.57-2.59,4.45-1.94,1.03.76-2.24,5.28-3.39,11.81-.97,5.52-.31,11.87,1.26,12.19,2.28.47,6.02-14.57,7.45-14.23,1.47.35-1.17,16.47-.19,16.65.69.13,2.3-7.97,3.68-7.84,1.76.16,1.55,13.65,3.1,13.74,1.07.07,2.01-6.37,3-6.29,1.21.1-.58,9.74,4.65,18,1.85,2.92,5.01,6.37,7.16,5.71,2.01-.62,1.67-4.39,3.29-4.74,3.09-.67,8.11,12.17,9.68,11.61.98-.35-.38-5.51.87-6,1.43-.56,4.49,5.62,6.19,5.03,1.53-.52.65-6.04,1.84-6.29.95-.2,1.58,3.32,3.87,3.87,2.53.61,4.92-2.9,5.9-2.23,1.14.77-1.63,5.73-.48,6.58,1.32.98,6.39-4.57,7.74-3.58,1.07.79-1.26,4.92-.39,5.52,1.48,1.01,9.4-10.01,12.48-8.52,1.69.82.54,4.71,1.84,5.23,3.18,1.26,13.69-20.5,16.94-19.26,1.47.56.6,5.54,1.55,5.71,1.56.28,4.51-13.02,6.29-12.77,1.45.2,1.16,9.26,1.84,9.29.9.04,2.11-16.19,3.19-16.16,1.02.03.42,14.58,3.39,15.1,1.41.25,3.16-2.76,3.97-4.65,3.56-8.28-1.34-17.31.48-18.19,1.17-.57,3.35,3.1,4.45,2.61,2.65-1.17-5.95-24.08-2.9-25.55,1.77-.85,5.88,6.29,8.13,5.32,2.1-.91,1.19-8.31-.29-13.94-3.17-12.03-10.16-20.34-9.29-21,.68-.51,4.68,4.76,6.29,3.87,1.17-.64.75-4.34-.48-7.26-2.36-5.59-7.72-8.38-7.16-9.29.36-.59,2.6.54,3.1-.19.49-.72-1.06-2.77-2.61-4.26-4.06-3.9-8.75-4.61-8.61-5.32.15-.78,5.65.36,6.19-.97.58-1.42-4.35-5.94-10.06-7.84-13.44-4.47-28.48,6.49-29.13,5.23-.45-.89,7.44-5.46,6.87-6.58-.29-.57-2.69-.14-4.65.68-4.03,1.69-5.81,4.88-6.77,4.35-.65-.35.17-1.79-.68-2.9-1.41-1.85-6.32-1.37-7.35.68-.52,1.03.06,2.18-.29,2.32-.63.25-1.86-3.77-4.65-4.26-.99-.17-1.19.28-2.23.19-2.47-.2-3.83-2.98-5.13-4.55-2.45-2.95-6.24-3.44-11.13-4.06-8.87-1.14-17.99,2.18-17.9,4.26.07,1.68,6.15,2.38,6,3.68Z"/>
      <path class="cls-4" d="M52.15,40.51c-1.28-4.83-3.79-6.09-4.45-6.39-5.09-2.25-12.41,3.75-15.1,9.87-.26.58-3.04,7.1-.39,9.68,3.17,3.07,12.34-1.15,12.39-.97.02.08-1.91.33-3.29,1.18-5.63,3.48-4.79,18.85-.2,29.98,2.38,5.76,4.84,8.17,5.03,13.74.08,2.19-.21,4.46,1.35,6.39,2.06,2.54,5.5,2.25,5.81,4.06.22,1.32-1.55,1.8-2.13,4.26-.51,2.17.24,4.56.97,4.65,1.21.14,2.56-5.99,3.48-5.81.54.1.11,2.17,1.35,4.65.78,1.56,2.15,3.14,2.71,2.9,1.13-.48-2.06-7.92.19-9.48,1.16-.81,2.62.73,4.65,0,2.24-.81,3.04-3.64,3.48-4.84,1.95-5.3,7-6.39,12.97-11.23,6.21-5.03,9.3-11.61,15.48-24.77,1.18-2.52,4.3-9.37,2.32-11.03-.31-.26-.54-.21-1.94-.58-3.22-.85-5.22-1.95-5.23-1.94,0,.02,2.22,1.61,5.23,1.94,4.45.48,7.97-2.11,8.52-2.52,1.11-.83,5.37-4.05,4.84-8.32-.56-4.51-6.01-6.6-6.97-6.97-6.98-2.68-13.79,1.88-14.71,2.52-.66-.59-1.36-1.18-2.13-1.74-5.29-3.92-11-5.32-15.29-5.81-2.51.01-6.33.34-10.65,1.94-3.71,1.37-6.49,3.21-8.32,4.65Z"/>
      <ellipse class="cls-4" cx="41.45" cy="44.72" rx="6.1" ry="3.89" transform="translate(-19.48 42.4) rotate(-45)"/>
      <ellipse class="cls-4" cx="98.35" cy="48.01" rx="3.89" ry="6.1" transform="translate(-5.14 83.6) rotate(-45)"/>
      <path class="cls-3" d="M56.6,54.86c-.18.63-.48,1.29-.9,1.92-.47.72-1.03,1.32-1.62,1.77-1.27.98-2.68,1.27-3.66.63-1.43-.94-1.38-3.54.11-5.8,1.48-2.26,3.85-3.33,5.28-2.39,1.03.67,1.29,2.21.79,3.87Z"/>
      <path class="cls-3" d="M81.94,59.18c-.87.57-2.08.4-3.23-.33-.74-.46-1.45-1.15-2.03-2.03-.01,0-.02-.03-.03-.04-1.48-2.26-1.53-4.86-.1-5.79,1.43-.94,3.79.13,5.28,2.39,1.49,2.26,1.53,4.86.11,5.8Z"/>
      <path class="cls-5" d="M56.6,54.86c-.18.63-.48,1.29-.9,1.92-.47.72-1.03,1.32-1.62,1.77-.58-.48-.97-1.4-.97-2.47,0-1.55.83-2.8,1.84-2.8.73,0,1.36.64,1.65,1.58Z"/>
      <path class="cls-5" d="M80.27,56.08c0,1.4-.67,2.57-1.56,2.77-.74-.46-1.45-1.15-2.03-2.03-.06-.24-.08-.49-.08-.74,0-1.55.82-2.8,1.83-2.8s1.84,1.25,1.84,2.8Z"/>
      <path class="cls-4" d="M46.8,79.35c-.87.46-6.65,3.53-7.35,9.48-.04.37-.57,5.53,3.1,8.71,4.67,4.05,12.57,1.8,14.13-.97.32-.57.53-1.31.53-1.31.67-2.38-.15-4.71-.34-4.69-.19.02-.23,2.45.34,4.69.16.62.77,2.92,2.37,4.8,2.81,3.29,7.86,4.34,12,3.29.64-.16,6.86-1.83,7.94-6.39,1.15-4.9-4.48-9.57-7.16-11.81-.64-.53-14.45-11.7-25.55-5.81Z"/>
      <path class="cls-4" d="M62.13,53.7c-10.79,7.61-13.02,22.06-13.02,22.06-.7,4.53-.14,6.19.29,7.11,2.33,5.02,9,5.9,10.16,6.05.37.05,8.43,1.01,10.94-3.24.57-.97.64-1.86.73-3.1.56-8.38.84-12.56.24-17.23-.6-4.66-1.34-6.58-2.18-8.13-.69-1.27-2.32-4.26-4.72-4.38-1.08-.05-1.94.49-2.44.85Z"/>
      <path class="cls-2" d="M61,78.89c-7.63-.75-11.36-1.84-12.2-.22-.18.34-.11.79,0,1.71.41,3.01,2.28,4.89,2.67,5.27,1.11,1.07,2.18,1.54,3.36,2.05,3.78,1.65,7.16,1.42,8.88,1.28,2.29-.18,3.47-.67,4.18-1.04.79-.41,1.76-.91,2.44-2,.57-.93.71-1.92.87-3.09.13-.91.19-1.37.11-1.66-.45-1.71-4.66-1.74-10.31-2.29Z"/>
    </g>
  </g>
</svg>