<?xml version="1.0" encoding="UTF-8"?>
<svg id="_Слой_2" data-name="Слой 2" xmlns="http://www.w3.org/2000/svg" viewBox="0 0 123.58 179.93">
  <defs>
    <style>
      .cls-1, .cls-2, .cls-3, .cls-4, .cls-5, .cls-6 {
        stroke: #1d1d1b;
      }

      .cls-1, .cls-3, .cls-5 {
        stroke-linecap: round;
        stroke-linejoin: round;
      }

      .cls-1, .cls-6 {
        fill: none;
      }

      .cls-7, .cls-3 {
        fill: #fff;
      }

      .cls-2 {
        fill: #009148;
      }

      .cls-2, .cls-4, .cls-6 {
        stroke-miterlimit: 10;
      }

      .cls-8 {
        fill: #1f6392;
      }

      .cls-4 {
        fill: #039149;
      }

      .cls-5 {
        fill: #1d1d1b;
      }
    </style>
  </defs>
  <g id="_Слой_1-2" data-name="Слой 1">
    <g>
      <g>
        <path class="cls-4" d="M15.22,50.31c3.71-9.78-3.04-15.28,1.94-24,.42-.74,4.04-6.88,10.84-8.9,7.77-2.31,11.66,3.15,17.42.39,5.51-2.64,3.78-8.53,10.06-12.39,6.51-4,14.4-1.4,15.1-1.16,7.43,2.56,12.57,9.91,14.32,16.26,1.14,4.1.61,6.9,3.1,8.9,2.51,2.03,4.98.74,9.29,1.55,5.09.95,10.78,4.46,13.16,9.29,4.48,9.06-3.89,20.3-4.65,21.29-4.85,6.34-7.71,4.2-15.1,11.61-7.29,7.32-6.41,11.33-13.55,16.65-1.13.84-5.94,4.31-12.77,5.81-9.8,2.15-13.61-1.96-27.87-4.26-17.34-2.79-21.71,1.67-28.26-3.48-5.58-4.39-8.96-12.79-7.35-19.74,2.06-8.92,10.6-8,14.32-17.81Z"/>
        <line class="cls-1" x1="95.47" y1="48.02" x2="92.7" y2="44.54"/>
        <path class="cls-1" d="M34.52,20.61c.49-1.17.98-2.57,1.35-4.16.64-2.71.74-5.11.68-6.97"/>
        <path class="cls-1" d="M39.17,19.94c.37-.85.73-1.75,1.06-2.71,1.1-3.14,1.66-6.07,1.94-8.61"/>
        <path class="cls-1" d="M41.59,20.52c.96-.78,2.24-2,3.39-3.77,1.34-2.07,1.94-4.03,2.23-5.32"/>
        <path class="cls-1" d="M16.25,66.99v4.84c11.08,2.31,20.54,3.55,27.68,4.26,20.47,2.04,25.57.09,28.45-1.35,8.31-4.17,12.82-11.55,14.52-14.32,3.82-6.25,5.23-12.17,5.81-15.87l-3.16-4.52"/>
        <line class="cls-1" x1="16.25" y1="75.89" x2="16.25" y2="71.83"/>
        <path class="cls-1" d="M22.31,61.44c6.73-6.27,17.52-14.84,32.65-21.42,12.62-5.5,24.06-7.78,32.39-8.77"/>
        <path class="cls-8" d="M41.23,20.58c-1.01.46-2.44,1.22-3.95,2.41-1.58,1.25-5.01,3.98-6.19,8.9-.27,1.12-1.12,5.28,1.03,9.68.7,1.44,3.05,4.02,3.35,4.39.65.78,1.2,1.41,1.58,1.83,1.67-1.08,3.34-2.17,5.01-3.25-1.11-.67-3.01-2.02-4.52-4.38-.58-.91-2.73-4.38-2.06-8.65.67-4.31,4-7.97,8.51-9.64-.92-.43-1.83-.86-2.75-1.29Z"/>
        <path class="cls-1" d="M70.04,10.66c.99-.95,2.27-2.38,3.39-4.35,1.28-2.26,1.85-4.36,2.13-5.81"/>
        <path class="cls-1" d="M74.88,12.4c1.05-1.07,2.26-2.47,3.39-4.26,1.61-2.55,2.5-4.96,3-6.77"/>
        <path class="cls-1" d="M76.81,13.56c1.25-.38,3.29-1.18,5.32-2.9,1.67-1.41,2.69-2.92,3.29-3.97"/>
        <path class="cls-5" d="M53.22,38.77c.65-.28,1.2-.51,1.61-.68-.12-1.79-.57-4.83-2.36-8.07-2.63-4.77-6.55-7.09-8.22-7.96-1.31.35-4.26,1.35-6.41,4.17-2.99,3.93-2.74,9.18-.92,12.88,1.52,3.09,3.96,4.75,5.13,5.43,2.21-1.33,4.23-2.43,5.98-3.33,1.94-.99,3.7-1.8,5.18-2.44Z"/>
        <path class="cls-3" d="M41.23,20.58c-.7-.2-1.73-.43-3-.45,0,0-4.48-.06-8.26,3.04-7.51,6.18-3.8,21.49-3.17,23.93.77,2.95,1.76,5.26,2.47,6.72,1.16-1,2.4-2.02,3.72-3.05,1.38-1.08,2.74-2.07,4.05-2.99-4.89-4.37-7.33-10.53-5.96-15.9,1.23-4.81,5.32-8.21,6.19-8.9,1.5-1.2,2.93-1.95,3.95-2.41Z"/>
        <path class="cls-8" d="M76.77,12.36c.91,1.08,1.81,2.16,2.72,3.25-1.05-.07-2.72-.07-4.61.54-.92.3-5.48,1.75-7.05,5.98-1.32,3.54-.1,7.84,3.04,10.83-.78.19-1.57.4-2.38.63-.77.21-1.52.44-2.25.66-3.79-4.28-4.48-10.44-1.78-15.26,2.43-4.33,7.23-6.91,12.31-6.63Z"/>
        <path class="cls-5" d="M79.68,15.92c.88,1.65,1.91,4.01,2.54,6.98.69,3.24.65,6.02.48,7.97-1.95.21-4.04.49-6.22.89-1.99.36-3.86.76-5.61,1.2-3.43-2.91-4.5-7.74-2.65-11.72,1.97-4.22,6.81-6.51,11.46-5.32Z"/>
        <path class="cls-3" d="M56.63,37.83c-.43-1.13-4.13-11.16,1.58-19.4,3.05-4.4,9.65-9.55,15.4-7.83,1.38.41,2.43,1.14,3.15,1.76-1.84.11-4.77.57-7.75,2.39-1.34.82-3.34,2.04-4.74,4.55-1.49,2.68-1.41,5.23-1.35,6.48.19,4.28,2.36,7.29,3.31,8.46-1.42.44-2.91.94-4.43,1.5-1.83.68-3.56,1.38-5.17,2.09Z"/>
        <ellipse class="cls-7" cx="40.04" cy="32.95" rx="3.03" ry="2.52" transform="translate(2.82 69.06) rotate(-83.58)"/>
        <ellipse class="cls-7" cx="71.16" cy="23.29" rx="3.03" ry="2.52" transform="translate(40.06 91.39) rotate(-83.58)"/>
        <g>
          <path class="cls-2" d="M56.11,95.98c-.05,1.96-.14,4.57-.29,7.66-.67,13.55-1.05,20.32-3.29,21.15-2.69.99-4.91-4.98-14.66-10.21-4.25-2.28-7.86-4.15-12.19-3.39-5.15.91-9.18,5.17-11,9.21-4.11,9.15,1.07,21.69,8.61,28.06,4.53,3.83,9.09,4.75,8.81,6.87-.3,2.23-5.77,4.43-9.97,3.1-3.24-1.03-3.64-3.49-6.39-3.68-2.81-.19-6.18,2.13-6.68,5.13-.41,2.42,1.2,4.42,1.48,4.77,3.14,3.92,10.08,4.12,14.9,2.08,3.71-1.57,6.03-4.42,6-4.45-.03-.03-2.25,2.52-6,4.45-6.3,3.24-11.35,1.84-11.94,3.79-.43,1.44,1.75,4.1,4.45,4.84,7.11,1.94,16.46-9.78,16.53-9.69.03.03-1.87,1.75-3.44,3.39-2.99,3.12-5.82,6.07-5.06,8.15.54,1.48,2.83,2.21,4.74,2.23,2.94.02,5.22-2.82,9.19-7.94,3.33-4.28,4.12-6.32,6.48-6.68,2.08-.32,4.03.88,4.65,1.26,1.79,1.1,1.87,2.25,3.48,4.06.92,1.03,3.69,4.15,6.39,3.97,3.85-.26,5.08-7.09,7.74-6.77,2.04.24,1.81,4.33,5.03,5.71,2.6,1.12,5.57-.33,6.68-.87,4.64-2.26,4.03-5.67,7.16-6.68,4.41-1.42,10.84,3.69,13.94,7.16,2.44,2.73,3.2,4.87,5.61,5.23,2.06.3,4.78-.39,6.1-2.61,1.53-2.59.36-5.84-1.32-7.29-.65-.56-1.8-.91-4.1-1.62-2.15-.66-4.01-1.05-4.03-1-.02.07,3.9.39,8.13,2.61,4.36,2.29,5.19,4.57,7.23,4.19,2.23-.42,4.19-3.69,3.68-6.19-.64-3.13-5.04-4.57-9.28-5.95-3.73-1.22-7.11-1.62-7.09-1.73.03-.24,14.16,3.58,16.37-.35,1.16-2.06-1.12-5.87-3.68-7.26-2.6-1.41-4.37,2.19-9.58,2.42-2.48.11-6.11-.44-6.58-2.03-.54-1.84,3.49-3.9,6.97-6.97,9.15-8.06,10.87-19.9,11.32-23.03.57-3.94,2.45-16.86-4.26-21.1-6.1-3.86-15.88,1.64-17.61,2.61-8.99,5.05-10.64,12.22-14.13,11.81-2.67-.32-5.87-5.02-8.06-24.6-2.25,1.74-6.35,4.42-12.11,5.65-3.56.76-6.66.74-8.94.54Z"/>
          <path class="cls-6" d="M30.45,126.51c1.62,1.43,4.11,3.83,6.58,7.26,4.02,5.58,5.7,10.67,7.36,10.34.54-.11.77-.74,1.46-2.58,2.51-6.69,3.58-9.18,3.47-9.22-.2-.07-1.59,9.02-8.44,16.27-3.04,3.22-6.32,5.18-8.78,6.39"/>
          <path class="cls-6" d="M100.33,124.14c-1.48,1.4-3.51,3.64-5.13,6.84-1.23,2.42-1.53,4.02-2.45,4.1-1.62.13-3.25-4.62-4.23-7.45-1.49-4.33-2.02-7.97-1.87-8,.27-.06.97,11.34,8.13,21.81,2.82,4.12,5.9,7.02,8.17,8.89"/>
          <path class="cls-6" d="M61.33,130.52c-.29,2.68-.82,5.76-1.74,9.1-1.59,5.73-4.51,7.28-4.97,12.26-.21,2.24-.49,5.32,1.35,7.03,2.21,2.05,5.13-.03,9.29,2.52.92.56,2.84,1.78,3.1,3.81.11.9-.14,1.68-.37,2.18"/>
          <path class="cls-6" d="M75.59,131.04c.44,1.5,1.08,3.47,2,5.74.75,1.87,1.32,3,3.74,8.13,2.35,4.97,2.43,5.18,2.52,5.68.63,3.5-.34,8.33-3.23,9.74-2.4,1.17-4.2-.96-6.97,0-2.78.96-4.2,4.24-4.98,7"/>
        </g>
      </g>
      <path class="cls-1" d="M29.28,53.83c-3.83-8.43-4.14-15.32-4-19.1.21-5.44,1.49-7.81,2.45-9.16.43-.6,3.27-4.46,8.39-5.29,5.89-.95,10.35,2.85,12,4.26,5.71,4.88,6.55,11.73,6.71,13.55-3.68,1.52-7.79,3.49-12.13,6.06-5.41,3.22-9.86,6.6-13.42,9.68Z"/>
      <path class="cls-1" d="M56.63,37.83c-.68-1.8-3.26-9.26.26-16.9.76-1.66,2.73-5.77,7.35-8.39,1.04-.59,5.14-2.91,8.9-2.06,5.66,1.26,10.25,9.58,9.55,20.39-3.63.38-7.77,1.05-12.26,2.19-5.36,1.36-9.99,3.08-13.81,4.77Z"/>
    </g>
  </g>
</svg>