<?xml version="1.0" encoding="UTF-8"?>
<svg id="_Слой_2" data-name="Слой 2" xmlns="http://www.w3.org/2000/svg" viewBox="0 0 102.47 206.41">
  <defs>
    <style>
      .cls-1, .cls-2, .cls-3, .cls-4, .cls-5, .cls-6, .cls-7, .cls-8, .cls-9 {
        stroke: #1d1d1b;
      }

      .cls-1, .cls-4 {
        stroke-linecap: round;
        stroke-linejoin: round;
      }

      .cls-1, .cls-9 {
        fill: none;
      }

      .cls-10, .cls-3 {
        fill: #fff;
      }

      .cls-2 {
        fill: #414143;
      }

      .cls-2, .cls-3, .cls-5, .cls-6, .cls-7, .cls-8, .cls-9 {
        stroke-miterlimit: 10;
      }

      .cls-4, .cls-6 {
        fill: #939598;
      }

      .cls-5 {
        fill: #e8e7e7;
      }

      .cls-7 {
        fill: #1d1d1b;
      }

      .cls-8 {
        fill: #221e1f;
      }
    </style>
  </defs>
  <g id="_Слой_1-2" data-name="Слой 1">
    <path class="cls-6" d="M55.32,154.82c1.29,6.76,2.11,12.3,2.61,16.07,1.69,12.64,1.45,17.2,5.42,21.3,2.06,2.12,6.27,5.18,9.64,4.02.31-.11,1.42-.53,2.01-1.61.95-1.75-.24-3.82-.35-4.02-1.32-2.22-4.1-2.76-4.11-2.74-.01.02,2.95.49,4.11,2.74.89,1.74,0,3.19,1.1,4.12.99.83,2.52.42,2.76.35.11-.03,1.74-.49,2.46-2.11.64-1.43.14-2.79,0-3.16-1.24-3.26-5.96-4.29-5.93-4.37.02-.05,1.67.23,3.42,1.56,1.88,1.43,2.15,2.77,3.21,2.76.94,0,1.88-1.04,2.11-2.06.55-2.48-3.18-4.87-3.42-5.02-4.18-2.62-9.08-.69-9.29-.6-2.64,1.09-4.22,2.98-4.27,2.91-.04-.05,1.19-1.33,3.06-2.31,1.16-.61,2.22-.93,3-1.11-.29-2.9-.24-5.24-.13-6.87.05-.78.12-2.08.45-4.67.73-5.75.46-6.84.95-11.1.18-1.54.42-3.82.97-6.6"/>
    <path class="cls-6" d="M33.41,152.95c-1.29,6.76-2.11,12.3-2.61,16.07-1.69,12.64-1.45,17.2-5.42,21.3-2.06,2.12-6.27,5.18-9.64,4.02-.31-.11-1.42-.53-2.01-1.61-.95-1.75.24-3.82.35-4.02,1.32-2.22,4.1-2.76,4.11-2.74.01.02-2.95.49-4.11,2.74-.89,1.74,0,3.19-1.1,4.12-.99.83-2.52.42-2.76.35-.11-.03-1.74-.49-2.46-2.11-.64-1.43-.14-2.79,0-3.16,1.24-3.26,5.96-4.29,5.93-4.37-.02-.05-1.67.23-3.42,1.56-1.88,1.43-2.15,2.77-3.21,2.76-.94,0-1.88-1.04-2.11-2.06-.55-2.48,3.18-4.87,3.42-5.02,4.18-2.62,9.08-.69,9.29-.6,2.64,1.09,4.22,2.98,4.27,2.91.04-.05-1.2-1.33-3.06-2.31-1.08-.57-2.08-.89-2.82-1.07.17-2.92.07-5.26-.05-6.91-.07-.91-.14-2.17-.45-4.67-.73-5.75-.46-6.84-.95-11.1-.18-1.54-.42-3.82-.97-6.6"/>
    <path class="cls-6" d="M26.36,85.42c-2.14,2.66-1.54,4.85-2.32,10.06-2.1,14.07-9.15,16.46-17.03,34.45-5.08,11.59-7.66,17.48-6,24.97,2.5,11.29,12.75,17.61,16.84,20.13,12.69,7.83,25.57,6.63,29.61,6.19,6.09-.66,22.81-2.45,30.58-15.68,6.32-10.75,3.16-22.96,1.94-27.68-2.2-8.52-4.94-8.7-10.45-20.32-9.11-19.23-4.97-25.85-12.58-32.13-8.93-7.37-25.05-6.88-30.58,0Z"/>
    <g>
      <path class="cls-6" d="M73.26,46.38c2.84-.63,5.93-1.64,9.07-3.45,1.57-.91,1.59-1.12,2.92-1.76,3.03-1.46,8.18-2.92,11.42-1.55,7.93,3.35,5.75,23.47,1.35,27.68-3.05,2.92-4.84,3.25-4.84,3.25-.9.17-1.91.14-2.76.92-.73.68-.8,1.46-1.13,2.39-.49,1.39-1.3,2.26-2.93,3.98-4.15,4.4-9.85,5.85-11.42,6.23-2.25.55-4.05.67-4.42.68-3.76.15-6.08-.98-13.24-.22-6.69.71-5.49,1.72-14.71,3-4.42.61-14.56,1.94-18.47-.59-.27-.17-1.42-.95-1.95-.57-.75.54.67,2.82.1,3.29-1.07.87-9.44-4.6-10.26-11.42-.11-.9-.16-2.41-.39-2.42-.45,0-.44,5.97-1.45,6.09-1.17.14-4.82-7.48-2.4-13.67.86-2.2,2.45-4.13,2.01-4.52-.55-.5-3.08,2.67-4.33,2.06-2.06-.98-.42-11.95,5.82-20.51,1.46-2,2.9-3.51,3.97-4.52-.41-1.76-.92-4.29-1.28-7.37-.57-4.91-1.08-9.16,0-14.45.53-2.57,1.59-7.52,5.42-12.39,2.28-2.9,3.2-4.52,4.39-4.38,4.12.47,2.07,18.83,9.29,21.41,3.46,1.24,7.48-1.72,8.26-2.32,4.92-3.83,3.01-9.13,8.51-15.74,1.21-1.45,4.78-5.74,6.97-4.9,3.8,1.44-2.62,15.93,4.9,25.03,2.56,3.09,4.51,2.88,7.49,6.97.67.92,7.2,9.3,4.64,12.9-.08.12-.2.27-.51.45-.41.25-1.15.54-2.56.85-.49.1-1.08.21-1.76.32-.2.03-.39.06-.59.09-.06.01-.13.01-.2.03-.18.02-.37.04-.57.07-1.01.13-1.99.24-2.93.31"/>
      <path class="cls-2" d="M88.83,54.01c-.58-.72-1.62-2.2-2.71-7.48-.46-2.24-.69-3.38-.52-4.26.6-3,3.27-4.61,3.74-4.9.63-.38,3.24-1.97,6.32-1.03,3.34,1.01,4.62,4.19,4.9,4.9,1.3,3.24.22,6.2-.39,7.87-.4,1.1-2.07,5.66-5.81,6.71-.49.14-1.89.53-3.39-.06-.44-.18-1.21-.56-2.16-1.74Z"/>
      <path class="cls-8" d="M88.99,43.33c-.76.31-.34,2.87-.26,3.35.17,1.04.66,4,3.1,5.42.5.29,1.38.8,2.45.65,1.25-.18,1.96-1.13,3.29-2.9,1.14-1.52,1.29-2.32,1.29-2.9,0-.46,0-1.1-.39-1.35-.87-.58-2.29,1.7-4.26,1.68-2.69-.03-4.21-4.35-5.23-3.94Z"/>
      <path class="cls-1" d="M91.83,57.01c.01,1.46-.14,3.69-1.03,6.19-2.79,7.82-10.27,11.06-12,11.74-3.38,1.34-3.53.41-14.71.9-12.33.55-17.91,1.95-23.5-1.85-1.11-.76-1.92-1.51-2.41-2-1.6,2.59-2.05,3.24-2.09,3.21-.08-.05.76-2.45,2.79-3.71,1.13-.7,2.33-.87,3.29-.87"/>
      <path class="cls-5" d="M68.5,76.02c-.12,2.56,1.11,4.34,2.06,4.39.95.04,2.34-1.62,2.45-4.19l-4.52-.19Z"/>
      <path class="cls-5" d="M84.66,72.73c-.15,2.19.49,3.93,1.31,4.11.88.2,2.41-1.3,3.1-3.97-1.47-.05-2.94-.1-4.4-.15Z"/>
      <path class="cls-5" d="M20.74,37.91c-2.79-7.82-2.33-13.85-1.68-17.35.15-.82,1.52-8.19,3.74-8.26,2.48-.08,4.57,9,4.77,9.94,1.01,4.53.94,8.42.71,11.03-.56-2.53-1.14-3.8-1.74-3.81-.75-.01-1.54,1.93-2.37,5.84-.51-1.84-1.01-2.75-1.5-2.74-.67.01-1.32,1.8-1.94,5.35Z"/>
      <path class="cls-5" d="M49.97,21.19c-.26-4.92.76-8.43,1.52-10.44.18-.47,1.79-4.68,2.83-4.5,1.16.21.93,5.8.9,6.37-.13,2.78-.68,5.08-1.13,6.6.08-1.55-.02-2.36-.3-2.43-.35-.09-.97.98-1.88,3.21,0-1.14-.11-1.73-.33-1.78-.31-.06-.85.92-1.61,2.97Z"/>
      <circle class="cls-3" cx="44.05" cy="50.19" r="5.88"/>
      <path class="cls-5" d="M63.75,31.25c-.32.06-1.6.3-2.03,1.31-.31.72-.02,1.46.03,1.57.44,1.07,1.58,1.34,3.8,2.15,3.71,1.36,4.56,2.1,5.13,1.6.65-.57.18-2.1-.1-2.76-.58-1.34-1.67-1.97-2.95-2.71-1.31-.76-2.46-1.42-3.87-1.16Z"/>
      <path class="cls-7" d="M47.26,51.25c0,2.23-1.81,4.04-4.04,4.04s-4.03-1.81-4.03-4.04,1.81-4.03,4.03-4.03c1.42,0,2.68.73,3.39,1.85.01,0,.01.01.01.01.27.4.45.86.56,1.35.05.26.08.54.08.82Z"/>
      <path class="cls-3" d="M68.83,40.53c-2.48,0-4.49,2.29-4.49,5.11,0,.18.01.35.02.53h0c.05.52.16,1,.33,1.46.94-.07,1.92-.18,2.93-.31.2-.03.39-.05.57-.07.07-.02.14-.02.2-.03.2-.03.39-.06.59-.09.56-.08,1.15-.16,1.76-.27.81-.13,1.65-.29,2.52-.48.02-.14.03-.28.04-.42.01-.11.01-.21.01-.32,0-2.82-2.01-5.11-4.48-5.11ZM70.65,45.67c-.29-1.06-1.1-1.9-2.15-2.23"/>
      <path class="cls-7" d="M70.82,46.9v-.05c.02-.1.02-.2.02-.3,0-.29-.04-.57-.11-.84-.29-1.06-1.1-1.9-2.15-2.23-.3-.09-.62-.14-.95-.14-1.57,0-2.87,1.12-3.15,2.61-.02.09-.03.18-.04.26h0c.06.36.12.7.19,1.05"/>
      <path class="cls-10" d="M70.65,45.67c-.24.15-.52.23-.82.23-.88,0-1.59-.71-1.59-1.59,0-.32.1-.62.26-.87,1.05.33,1.86,1.17,2.15,2.23Z"/>
      <path class="cls-10" d="M47.18,50.43c-.27.15-.57.22-.9.22-1.06,0-1.91-.85-1.91-1.9,0-.39.12-.75.31-1.05.78.25,1.45.73,1.93,1.37.01,0,.01.01.01.01.27.4.45.86.56,1.35Z"/>
      <path class="cls-5" d="M38.81,35.12c-1.7.76-2.94,1.32-3.35,2.65-.37,1.17-.06,2.82.94,3.45.6.38,1.11.19,7.16-2.71,1.15-.55,1.93-.94,2.06-1.68.17-.94-.83-1.99-1.77-2.45-1.62-.79-3.41.01-5.03.74Z"/>
      <path class="cls-9" d="M91.72,70.79c-.18.06-.44.15-.75.28-1.35.54-2.16,1.11-2.51,1.3-.73.41-2.01.6-4.39-.39"/>
    </g>
    <path class="cls-4" d="M20.69,123.24c.87,18.76.54,38.32-1.33,58.58-.16,1.68-.32,3.34-.5,5h0c1,.28,2.34.74,3.79,1.59.14.08.28.17.42.26.06.03.11.07.16.1.11.08.19.14.24.16,1.83,1.23,2.98,2.52,2.98,2.62-.1,0-1.14-1.31-2.98-2.62-.05-.02-.13-.08-.24-.16-.05-.03-.1-.07-.16-.1-.58-.39-1.23-.76-1.94-1.09-.1-.04-.95-.43-2.27-.76-2.35-.58-6.16-.99-9.68,1.02-.32.18-5.23,3.05-4.66,6.26.23,1.32,1.39,2.7,2.59,2.76.47.02.83-.16,1.2-.5.71-.61,1.45-1.73,3.08-2.87.16-.11.32-.22.48-.31.02,0,.04-.02.06-.03,2.1-1.31,3.9-1.53,3.93-1.47,0,.06-1.93.43-3.93,1.47-.02.01-.04.02-.06.03-1.35.71-2.73,1.73-3.56,3.18-.11.19-.21.39-.3.6-.2.47-.91,2.2-.17,4.07.84,2.11,2.9,2.79,3.04,2.84.3.09,2.25.7,3.57-.3.35-.27.55-.59.68-.94.41-1.11.02-2.6.93-4.24,0-.02.02-.03.03-.05.99-1.74,2.82-2.57,4.08-2.96.06-.02.12-.04.17-.05.02-.01.04-.02.06-.02.54-.16.94-.22,1.07-.25h.04s-.01,0-.04,0c-.19.05-1.01.24-1.07.25,0,0-.01,0-.03,0-.02,0-.03.01-.03.01-.02.01-.05.01-.08.02,0,0-.02,0-.09.03-.23.08-4.05,2.9-4.08,2.96,0,.01-.01.02-.02.03s0,.01-.01.02c-1.37,2.29-.93,4.24-.93,4.24.1.46.26.78.29.85,0,0,.65,1.35,2.49,2.17,1.7.76,7.71-.05,12.59-4.63,2.87-2.7,5.12-6.48,8.13-27.03.97-6.61,1.55-11.75,2.59-21.01.05-.41,2.3-20.43,2.33-20.69"/>
    <path class="cls-4" d="M66.41,123.24c-.87,18.76-.54,38.32,1.33,58.58.16,1.68.32,3.34.5,5h0c-1,.28-2.34.74-3.79,1.59-.14.08-.28.17-.42.26-.06.03-.11.07-.16.1-.11.08-.19.14-.24.16-1.84,1.31-2.88,2.62-2.98,2.62,0-.1,1.15-1.39,2.98-2.62.05-.02.13-.08.24-.16.05-.03.1-.07.16-.1.58-.39,1.23-.76,1.94-1.09.1-.04.95-.43,2.27-.76,2.35-.58,6.16-.99,9.68,1.02.32.18,5.23,3.05,4.66,6.26-.23,1.32-1.39,2.7-2.59,2.76-.47.02-.83-.16-1.2-.5-.71-.61-1.45-1.73-3.08-2.87-.16-.11-.32-.22-.48-.31-.02,0-.04-.02-.06-.03-2-1.04-3.93-1.41-3.93-1.47.03-.06,1.83.16,3.93,1.47.02.01.04.02.06.03,1.35.71,2.73,1.73,3.56,3.18.11.19.21.39.3.6.2.47.91,2.2.17,4.07-.84,2.11-2.9,2.79-3.04,2.84-.31.09-2.25.7-3.57-.3-.35-.27-.55-.59-.68-.94-.41-1.11-.02-2.6-.93-4.24,0-.02-.02-.04-.03-.05-.99-1.74-2.82-2.57-4.08-2.96-.02-.01-.03-.01-.05-.02-.04-.01-.08-.03-.12-.03l-.06-.02h0s.02,0,.03,0c.01,0,.02,0,.03.01.02,0,.02,0,.06.01.03,0,.05.02.06.02,0,0,0,0,.02,0,0,0,.01,0,.03.01,1.44.58,2.08,1,2.08,1s.89.58,2,1.96c0,.01.01.02.02.02s0,.01.01.03c1.23,2.86.93,4.24.93,4.24-.09.43-.24.74-.29.85,0,0-.65,1.35-2.49,2.17-1.63.73-7.7.2-12.6-4.63-5.11-5.04-6.11-12.37-8.12-27.03-.53-3.91-1.12-8.57-1.12-8.57-.22-1.79-.4-3.28-.48-3.9-.12-1.03-.38-3.14-.69-5.88-.15-1.35-.26-2.34-.3-2.67-.25-2.24-.85-7.6-2.33-20.69"/>
  </g>
</svg>