<?xml version="1.0" encoding="UTF-8"?>
<svg id="_Слой_2" data-name="Слой 2" xmlns="http://www.w3.org/2000/svg" xmlns:xlink="http://www.w3.org/1999/xlink" viewBox="0 0 593.3 524.01">
  <defs>
    <style>
      .cls-1, .cls-2, .cls-3, .cls-4, .cls-5, .cls-6, .cls-7, .cls-8, .cls-9, .cls-10, .cls-11, .cls-12, .cls-13, .cls-14, .cls-15, .cls-16, .cls-17 {
        stroke: #1d1d1b;
      }

      .cls-1, .cls-5, .cls-18 {
        stroke-linecap: round;
      }

      .cls-1, .cls-5, .cls-18, .cls-11, .cls-13, .cls-14, .cls-16 {
        stroke-linejoin: round;
      }

      .cls-1, .cls-11 {
        fill: #ffed00;
      }

      .cls-2 {
        fill: url(#_Безымянный_градиент_32);
      }

      .cls-2, .cls-3, .cls-4, .cls-6, .cls-7, .cls-8, .cls-9, .cls-10, .cls-12, .cls-19, .cls-15, .cls-17 {
        stroke-miterlimit: 10;
      }

      .cls-3 {
        fill: #f7c591;
      }

      .cls-3, .cls-8, .cls-12 {
        stroke-width: .5px;
      }

      .cls-4 {
        fill: url(#_Безымянный_градиент_32-4);
      }

      .cls-5, .cls-18, .cls-13, .cls-17 {
        fill: none;
      }

      .cls-6, .cls-20, .cls-12, .cls-14 {
        fill: #e30613;
      }

      .cls-7 {
        fill: url(#_Безымянный_градиент_32-3);
      }

      .cls-21, .cls-15, .cls-16 {
        fill: #009fe3;
      }

      .cls-18 {
        stroke: rgba(1, 1, 1, .9);
      }

      .cls-8 {
        fill: #cc9650;
      }

      .cls-22 {
        fill: #f39200;
      }

      .cls-9 {
        fill: #c89e44;
      }

      .cls-10 {
        fill: url(#_Безымянный_градиент_32-2);
      }

      .cls-19 {
        fill: #d8c068;
        stroke: #010101;
      }
    </style>
    <linearGradient id="_Безымянный_градиент_32" data-name="Безымянный градиент 32" x1="323.89" y1="453.01" x2="323.89" y2="532.84" gradientUnits="userSpaceOnUse">
      <stop offset="0" stop-color="#8ebf36"/>
      <stop offset=".15" stop-color="#87b836"/>
      <stop offset=".37" stop-color="#75a637"/>
      <stop offset=".62" stop-color="#588838"/>
      <stop offset=".79" stop-color="#41713a"/>
    </linearGradient>
    <linearGradient id="_Безымянный_градиент_32-2" data-name="Безымянный градиент 32" x1="208.6" y1="437.05" x2="208.6" y2="535.49" xlink:href="#_Безымянный_градиент_32"/>
    <linearGradient id="_Безымянный_градиент_32-3" data-name="Безымянный градиент 32" x1="42.73" y1="466.07" x2="42.73" y2="522.68" xlink:href="#_Безымянный_градиент_32"/>
    <linearGradient id="_Безымянный_градиент_32-4" data-name="Безымянный градиент 32" x1="451.25" y1="439.35" x2="451.25" y2="538.05" gradientTransform="translate(.8 -.5)" xlink:href="#_Безымянный_градиент_32"/>
  </defs>
  <g id="_Слой_1-2" data-name="Слой 1">
    <path class="cls-8" d="M373.16,106.32h-143.13c.71-1.04,1.42-2.09,2.12-3.13,7.8-11.48,15.59-22.97,23.38-34.45h92.31c7.74,11.48,15.48,22.97,23.22,34.45.7,1.04,1.4,2.09,2.1,3.13Z"/>
    <path class="cls-8" d="M396.38,140.76h-189.72c.54-.79,1.07-1.57,1.6-2.36,7.26-10.69,14.51-21.39,21.77-32.08.71-1.04,1.42-2.09,2.12-3.13h138.91c.7,1.04,1.4,2.09,2.1,3.13,7.21,10.69,14.42,21.39,21.63,32.08.53.79,1.06,1.57,1.59,2.36Z"/>
    <path class="cls-8" d="M420.11,175.97h-68.55v-4.69h-99.7v4.69h-69.09c.7-1.04,1.41-2.08,2.11-3.12,7.26-10.7,14.52-21.39,21.78-32.09.54-.79,1.07-1.57,1.6-2.36h186.53c.53.79,1.06,1.57,1.59,2.36,7.21,10.7,14.42,21.39,21.63,32.09.7,1.04,1.4,2.08,2.1,3.12Z"/>
    <path class="cls-8" d="M441.71,208.02c-7.2-10.68-14.4-21.37-21.6-32.05-.7-1.04-1.4-2.08-2.1-3.12h-66.45v37.57h91.77c-.54-.8-1.08-1.6-1.62-2.4ZM184.88,172.85c-.7,1.04-1.41,2.08-2.11,3.12-7.25,10.68-14.5,21.37-21.75,32.05-.54.8-1.09,1.6-1.63,2.4h92.47v-37.57h-66.98Z"/>
    <path class="cls-8" d="M251.86,208.02v37.57h-116.34c7.96-11.72,15.92-23.45,23.87-35.17.54-.8,1.09-1.6,1.63-2.4h90.84Z"/>
    <path class="cls-8" d="M467.04,245.59h-115.48v-37.57h90.15c.54.8,1.08,1.6,1.62,2.4,7.9,11.72,15.8,23.45,23.71,35.17Z"/>
    <path class="cls-8" d="M469.04,248.56v34.61h-118.75v-4.81h-99.1v4.81h-116.8v-34.44l2.13-3.13h115.34v4.52h99.7v-4.52h115.48c.67.99,1.33,1.97,2,2.96Z"/>
    <path class="cls-8" d="M153.31,280.96v36.66h97.88v-36.66h-97.88ZM350.29,280.96v36.66h96.69v-36.66h-96.69Z"/>
    <rect class="cls-8" x="157.45" y="315.13" width="93.74" height="39.15"/>
    <rect class="cls-8" x="350.29" y="315.13" width="96.69" height="39.15"/>
    <polygon class="cls-8" points="446.98 353.01 446.98 389.67 419.21 389.67 419.21 368.69 320.11 368.69 320.11 389.67 280.63 389.67 280.63 368.69 181.53 368.69 181.53 389.67 157.45 389.67 157.45 353.01 251.19 353.01 251.19 355.01 350.29 355.01 350.29 353.01 446.98 353.01"/>
    <rect class="cls-8" x="157.45" y="377.96" width="24.08" height="36.65"/>
    <rect class="cls-8" x="280.63" y="377.96" width="39.48" height="36.65"/>
    <rect class="cls-8" x="419.21" y="377.96" width="27.77" height="36.65"/>
    <polygon class="cls-8" points="446.98 414.62 446.98 451.28 157.45 451.28 157.45 414.62 181.53 414.62 181.53 445.34 280.63 445.34 280.63 414.62 320.11 414.62 320.11 445.34 419.21 445.34 419.21 414.62 446.98 414.62"/>
    <rect class="cls-8" x="158.53" y="449.51" width="289.53" height="36.66"/>
    <polyline class="cls-8" points="158.53 521.33 158.53 486.17 448.06 486.17 448.06 522.83"/>
    <path class="cls-3" d="M571.67,486.17v28.95c-3.76.03-7.52.07-11.28.11-31.3.29-62.6.59-93.9.89-5.85,2.23-11.7,4.47-17.55,6.71h-7.1v-36.66h129.83Z"/>
    <polygon class="cls-3" points="570.51 449.51 570.51 486.17 445.87 486.17 445.87 449.51 481.37 449.51 481.37 469.31 552.3 469.31 552.3 449.51 570.51 449.51"/>
    <path class="cls-3" d="M445.87,425.98v36.65h35.5v-36.65h-35.5ZM584.95,425.98h-32.65v36.65h32.65v-3.07c-.81-1.34-1.82-2.55-3-3.59,1.05-.27,2.06-.66,3-1.16v-28.83Z"/>
    <path class="cls-3" d="M449.85,392.78v36.65h31.52v-21.23h70.93v21.23h28.54v-36.65h-130.99Z"/>
    <rect class="cls-3" x="445.5" y="365.84" width="137.39" height="36.66"/>
    <path class="cls-3" d="M158.26,304.82v36.66H36.72v-18.86c30.39-.21,60.79-.42,91.19-.63-5.54-5.72-11.09-11.45-16.63-17.17h46.98Z"/>
    <rect class="cls-3" x="36.72" y="334.69" width="121.53" height="36.66"/>
    <rect class="cls-3" x="29.11" y="366.31" width="129.14" height="36.66"/>
    <path class="cls-3" d="M22.66,400.51v36.65h27.78v-27.87h70.93v27.87h36.89v-36.65H22.66Z"/>
    <rect class="cls-3" x="25.89" y="427.36" width="24.55" height="36.65"/>
    <rect class="cls-3" x="121.37" y="427.36" width="40.11" height="36.65"/>
    <polygon class="cls-3" points="161.48 460.94 161.48 497.6 30.12 497.6 30.12 460.94 50.44 460.94 50.44 470.41 121.37 470.41 121.37 460.94 161.48 460.94"/>
    <path class="cls-3" d="M161.48,491.45v29.89c-4.14-.02-8.27-.04-12.41-.06-3.27-1.55-6.54-3.1-9.81-4.65-36.38-1.15-72.76-2.31-109.14-3.45v-21.73h131.36Z"/>
    <rect class="cls-3" x="444.51" y="332.64" width="126" height="36.66"/>
    <path class="cls-3" d="M576.25,318.94v23.38h-134.14v-36.66h57.7c-5.82,4.05-11.64,8.1-17.46,12.15,31.3.38,62.6.75,93.9,1.13Z"/>
    <path class="cls-1" d="M324.22,33.55s-.04.05-.05.08l-22.03,32.36c-.62.92-1.25,1.83-1.87,2.75-7.82,11.48-15.63,22.97-23.45,34.45-.71,1.04-1.42,2.09-2.13,3.13-7.28,10.69-14.55,21.38-21.83,32.08-.54.78-1.07,1.57-1.61,2.36-7.28,10.69-14.56,21.39-21.84,32.09-.71,1.04-1.41,2.08-2.12,3.12-7.27,10.68-14.54,21.36-21.81,32.05-.55.8-1.09,1.6-1.64,2.4-7.98,11.72-15.95,23.44-23.93,35.17,0,0-.01,0-.01.01-7.81,11.47-15.62,22.94-23.43,34.42-.47.69-.94,1.38-1.41,2.08-.24.35-.49.71-.73,1.07-5.07,7.45-10.14,14.91-15.22,22.36-1.99,2.93-3.98,5.85-5.97,8.78-1.75,2.56-3.49,5.12-5.23,7.68-8.67-8.95-17.34-17.9-26.01-26.85,10.83-15.96,21.66-31.92,32.49-47.88.38-.55.75-1.11,1.13-1.66h0c7.96-11.73,15.92-23.46,23.87-35.18.54-.8,1.09-1.6,1.63-2.4,7.25-10.68,14.5-21.37,21.75-32.05.7-1.04,1.41-2.08,2.11-3.12,7.26-10.7,14.52-21.39,21.78-32.09.54-.79,1.07-1.57,1.6-2.36,7.26-10.69,14.51-21.39,21.77-32.08.71-1.04,1.42-2.09,2.12-3.13,7.8-11.48,15.59-22.97,23.38-34.45,8.15-12.01,16.29-24.01,24.44-36.02,7.29-10.74,14.58-21.48,21.87-32.22,7.46,11.02,14.92,22.03,22.38,33.05Z"/>
    <path class="cls-1" d="M302.14,65.99c.61.92,1.22,1.83,1.83,2.75,7.64,11.48,15.29,22.96,22.91,34.45.71,1.04,1.4,2.09,2.08,3.13,7.12,10.69,14.23,21.38,21.32,32.08.53.79,1.05,1.57,1.57,2.36,7.1,10.69,14.2,21.39,21.28,32.09.7,1.04,1.39,2.08,2.07,3.12,7.09,10.68,14.16,21.36,21.23,32.05.54.8,1.07,1.6,1.59,2.4,7.76,11.72,15.52,23.44,23.26,35.17,0,0,.01,0,.01,0,7.31,11.06,14.62,22.12,21.91,33.19.29.41.56.82.81,1.23.71,1.05,1.4,2.1,2.08,3.15,5.13,7.75,10.24,15.5,15.34,23.25,2.12,3.21,4.24,6.42,6.36,9.64.34.51.67,1.02,1.01,1.53,10-8.3,19.99-16.59,29.99-24.89-9.92-14.71-19.84-29.43-29.75-44.14-.67-.99-1.33-1.97-2-2.96h0c-7.91-11.73-15.81-23.46-23.71-35.18l-1.62-2.4c-7.2-10.68-14.4-21.37-21.6-32.05l-2.1-3.12c-7.21-10.7-14.42-21.39-21.63-32.09-.53-.79-1.06-1.57-1.59-2.36-7.21-10.69-14.42-21.39-21.63-32.08-.7-1.04-1.4-2.09-2.1-3.13-7.74-11.48-15.48-22.97-23.22-34.45-7.89-11.7-15.78-23.41-23.67-35.11-7.44-11.04-14.89-22.09-22.33-33.13l-21.93,32.13.06.09"/>
    <path class="cls-5" d="M578.36,486.46c-.02.16-.04.31-.06.47-.25,2.03-.5,4.07-.74,6.1-.8,6.57-1.6,13.15-2.41,19.73-.04.32-.08.64-.11.96h-.01"/>
    <path class="cls-5" d="M15.07,389.24c1.24.39,2.63.46,4.02.19,1.59-.31,3.19-1.07,4.56-2.34-.03,1.69-.06,3.38-.08,5.07h0c-.02.7-.03,1.4-.04,2.09-.06,3.42-.11,6.83-.17,10.25-.05,3.24-.11,6.47-.16,9.71-1.36.26-2.71.52-4.07.78-.32,1.77-.74,4.41-1.06,7.63-.73,7.24-.01,12.56.29,22.95.11,3.88.38,7.08.74,9.76.37,2.78.85,5.01,1.35,6.87h0c.85,3.13,1.78,5.23,2.48,7.19l.21.63c.2,1.32.4,2.63.6,3.94.28,2.41.55,4.81.83,7.22"/>
    <path class="cls-5" d="M572.17,515.12h-.5c-3.76.03-7.52.07-11.28.11-31.3.29-62.6.59-93.9.89-5.85,2.23-11.7,4.47-17.55,6.71-2.37,0-4.73-.02-7.1-.04-93.45-.48-186.92-.97-280.36-1.45-4.14-.02-8.27-.04-12.41-.06l-9.81-4.65c-34.25-1.08-68.49-2.17-102.74-3.25-2.13-.07-4.27-.13-6.4-.2-.52-.02-1.03-.04-1.55-.05"/>
    <path class="cls-5" d="M25.2,511.7v-25c-.1-.8-.18-1.59-.28-2.39,0-.04,0-.08,0-.12"/>
    <path class="cls-5" d="M580.97,346.7c-3.14-7.57-6.28-15.14-9.43-22.71"/>
    <path class="cls-5" d="M585.36,357.27c2.06,4.97,4.13,9.94,6.19,14.91.33.46.62.94.87,1.44"/>
    <circle class="cls-19" cx="565.56" cy="339.8" r="16.89"/>
    <path class="cls-18" d="M561.17,335.48c3-3.41,9.65,1.71,7.01,6.17-7.44,12.56-23.03-7.75-8.08-14.03,14.5-6.09,20.87,15.35,13.57,19.36"/>
    <path class="cls-11" d="M586.09,324.27c.06,2.12-1.08,4.13-2.97,5.19-2.29,0-4.58,0-6.87,0-36.07-.08-72.15-.16-108.22-.24.26-3.87.51-7.75.77-11.62,4.79-3.98,9.58-7.95,14.37-11.93,5.4-4.48,10.81-8.97,16.21-13.45,1.89,3.26,3.79,6.53,5.68,9.8-1.75,1.22-3.5,2.44-5.25,3.65-5.82,4.05-11.64,8.1-17.46,12.15,31.3.38,62.6.75,93.9,1.13,2,.02,4.01.05,6.01.07,2.25.83,3.77,2.93,3.83,5.26Z"/>
    <path class="cls-13" d="M468.8,317.59c-55.51-83.76-111.02-167.52-166.53-251.28-58.12,85.23-116.24,170.45-174.36,255.68"/>
    <path class="cls-6" d="M191.41,227.2c-2.16-13.67-4.32-27.34-6.49-41.02,11.95-.68,23.9-1.36,35.85-2.05-9.79,14.35-19.58,28.71-29.37,43.06Z"/>
    <path class="cls-11" d="M136.74,331.53c-33.34.32-66.68.63-100.02.95-6.82.06-13.64.13-20.46.19-.3-.26-2.25-1.97-2.32-4.84-.08-2.98,1.92-4.81,2.21-5.07,6.86-.05,13.71-.1,20.57-.14,30.39-.21,60.79-.42,91.19-.63-5.54-5.72-11.09-11.45-16.63-17.17-3.13-3.23-6.25-6.45-9.38-9.68,1.93-2.85,3.87-5.71,5.81-8.56,5.93,6.08,11.86,12.16,17.8,18.24,3.44,3.53,6.88,7.05,10.32,10.58.3,5.38.61,10.75.91,16.13Z"/>
    <path class="cls-15" d="M197.79,217.72c-1.37-8.65-2.74-17.3-4.1-25.95,7.56-.43,15.12-.86,22.68-1.29-6.19,9.08-12.39,18.16-18.58,27.25Z"/>
    <path class="cls-6" d="M221.61,183.35c-2.16-13.67-4.32-27.34-6.49-41.02,11.95-.68,23.9-1.36,35.85-2.05-9.79,14.35-19.58,28.71-29.37,43.06Z"/>
    <path class="cls-15" d="M227.98,173.86c-1.37-8.65-2.74-17.3-4.1-25.95,7.56-.43,15.12-.86,22.68-1.29l-18.58,27.25Z"/>
    <path class="cls-6" d="M251.61,140.28c-2.16-13.67-4.32-27.34-6.49-41.02,11.95-.68,23.9-1.36,35.85-2.05-9.79,14.35-19.58,28.71-29.37,43.06Z"/>
    <path class="cls-15" d="M257.98,130.8c-1.37-8.65-2.74-17.3-4.1-25.95,7.56-.43,15.12-.86,22.68-1.29l-18.58,27.25Z"/>
    <path class="cls-6" d="M305.44,61.64c-1.02,1.49-2.04,2.98-3.05,4.47-.02.02-.04.05-.05.07-7.01,10.28-14.02,20.56-21.03,30.83-2.16-13.67-4.33-27.34-6.49-41.02,6.66-.38,13.33-.76,20-1.14,1.29,1.95,2.59,3.91,3.89,5.86h.09c1.18,1.77,2.36,3.55,3.54,5.32,1-1.47,2-2.94,3.01-4.41.03.01.06.01.09.02Z"/>
    <path class="cls-15" d="M302.34,66.03s-.03.05-.05.07c-4.87,7.14-9.74,14.29-14.61,21.43-1.37-8.65-2.74-17.3-4.1-25.95,5.04-.29,10.09-.58,15.13-.87h.09c1.18,1.77,2.36,3.55,3.54,5.32Z"/>
    <path class="cls-6" d="M332.38,59.93c-3.87,11.33-7.73,22.66-11.6,33.99-6.15-9.25-12.29-18.49-18.44-27.74-.01-.03-.03-.05-.05-.08-1.19-1.8-2.39-3.59-3.58-5.39h.09c1.18,1.77,2.36,3.55,3.54,5.32,1-1.47,2-2.94,3.01-4.41.03.01.06.01.09.02,1.56-2.3,3.13-4.59,4.69-6.89,7.41,1.73,14.83,3.45,22.25,5.18Z"/>
    <path class="cls-15" d="M323.91,65.94c-2.45,7.17-4.89,14.34-7.34,21.51-4.72-7.12-9.45-14.23-14.18-21.34-.01-.03-.03-.05-.05-.08,1-1.47,2-2.94,3.01-4.41.03.01.06.01.09.02,6.16,1.43,12.31,2.86,18.47,4.3Z"/>
    <path class="cls-6" d="M320.83,93.92c13.48,3.14,26.96,6.28,40.44,9.42-3.86,11.33-7.73,22.66-11.59,33.99-9.62-14.47-19.23-28.94-28.85-43.41Z"/>
    <path class="cls-15" d="M327.22,103.39c8.53,1.99,17.06,3.97,25.59,5.96-2.44,7.17-4.89,14.34-7.33,21.51-6.08-9.16-12.17-18.31-18.25-27.47Z"/>
    <path class="cls-6" d="M350.06,137.47c13.48,3.14,26.96,6.28,40.44,9.42-3.86,11.33-7.73,22.66-11.59,33.99-9.62-14.47-19.23-28.94-28.85-43.41Z"/>
    <path class="cls-15" d="M356.45,146.95c8.53,1.99,17.06,3.97,25.59,5.96-2.44,7.17-4.89,14.34-7.33,21.51-6.08-9.16-12.17-18.31-18.25-27.47Z"/>
    <path class="cls-6" d="M379.65,182.39c13.48,3.14,26.96,6.28,40.44,9.42-3.86,11.33-7.73,22.66-11.59,33.99-9.62-14.47-19.23-28.94-28.85-43.41Z"/>
    <path class="cls-15" d="M386.04,191.86c8.53,1.99,17.06,3.97,25.59,5.96-2.44,7.17-4.89,14.34-7.33,21.51-6.08-9.16-12.17-18.31-18.25-27.47Z"/>
    <ellipse class="cls-19" cx="444.8" cy="298.76" rx="17.99" ry="20.06"/>
    <path class="cls-18" d="M432.21,293.38c-.11-9.89,23.12-15.83,25.07,2.71,2.01,19.13-25,14.88-17.25-.15,2.75-5.33,10.98-1.45,9.39,3.64"/>
    <path class="cls-6" d="M409.4,226.91c13.48,3.14,26.96,6.28,40.44,9.42-3.86,11.33-7.73,22.66-11.59,33.99-9.62-14.47-19.23-28.94-28.85-43.41Z"/>
    <path class="cls-15" d="M415.79,236.38c8.53,1.99,17.06,3.97,25.59,5.96-2.44,7.17-4.89,14.34-7.33,21.51-6.08-9.16-12.17-18.31-18.25-27.47Z"/>
    <path class="cls-6" d="M439.11,271.72c13.48,3.14,26.96,6.28,40.44,9.42-3.86,11.33-7.73,22.66-11.59,33.99-9.62-14.47-19.23-28.94-28.85-43.41Z"/>
    <path class="cls-15" d="M445.5,281.19c8.53,1.99,17.06,3.97,25.59,5.96-2.44,7.17-4.89,14.34-7.33,21.51-6.08-9.16-12.17-18.31-18.25-27.47Z"/>
    <path class="cls-11" d="M44.35,402.75v72h83.56v-72H44.35ZM121.37,470.41H50.44v-61.12h70.93v61.12Z"/>
    <path class="cls-11" d="M475.41,402.75v72h82.84v-72h-82.84ZM552.3,469.31h-70.93v-61.11h70.93v61.11Z"/>
    <circle class="cls-19" cx="157.45" cy="398.86" r="17.23"/>
    <path class="cls-11" d="M244.45,158.93v102.97h119.5v-102.97h-119.5ZM351.56,250.12h-99.7v-78.84h99.7v78.84Z"/>
    <line class="cls-17" x1="351.56" y1="210.42" x2="351.56" y2="208.02"/>
    <circle class="cls-19" cx="29.79" cy="466.56" r="15.52"/>
    <path class="cls-18" d="M22.33,473.16c-6.71-3.69-.85-23.39,12.47-17.79,13.74,5.77-.59,24.44-7.42,12.89-2.42-4.1,3.68-8.8,6.44-5.67"/>
    <circle class="cls-19" cx="25.67" cy="441.54" r="13.84"/>
    <circle class="cls-19" cx="25.48" cy="393.46" r="11.24"/>
    <path class="cls-18" d="M20.08,398.24c-4.86-2.67-.62-16.93,9.03-12.88,9.95,4.18-.43,17.69-5.37,9.33-1.76-2.97,2.67-6.37,4.66-4.1"/>
    <path class="cls-18" d="M23.2,447.43c-5.98-3.29-.76-20.85,11.12-15.86,12.25,5.15-.53,21.79-6.62,11.5-2.16-3.65,3.28-7.85,5.74-5.05"/>
    <circle class="cls-19" cx="22.41" cy="418.84" r="15.13"/>
    <path class="cls-18" d="M15.14,425.27c-6.54-3.59-.83-22.8,12.15-17.34,13.4,5.63-.57,23.82-7.23,12.57-2.36-3.99,3.59-8.58,6.28-5.52"/>
    <circle class="cls-19" cx="37.07" cy="344.07" r="13.23"/>
    <path class="cls-18" d="M30.71,349.7c-5.72-3.14-.73-19.94,10.63-15.17,11.72,4.92-.5,20.84-6.33,10.99-2.07-3.49,3.14-7.5,5.49-4.83"/>
    <circle class="cls-19" cx="29.91" cy="368.52" r="12.82"/>
    <path class="cls-18" d="M23.74,373.97c-5.54-3.05-.7-19.32,10.3-14.7,11.36,4.77-.49,20.19-6.13,10.65-2-3.39,3.04-7.27,5.32-4.68"/>
    <line class="cls-17" x1="181.53" y1="414.62" x2="181.53" y2="414.61"/>
    <line class="cls-17" x1="280.63" y1="414.62" x2="280.63" y2="414.61"/>
    <line class="cls-17" x1="419.21" y1="414.62" x2="419.21" y2="414.61"/>
    <line class="cls-17" x1="320.11" y1="414.62" x2="320.11" y2="414.61"/>
    <path class="cls-9" d="M244.44,249.82c-8.71,1.94-17.42,3.87-26.13,5.81-1.42-26.32-2.84-52.64-4.26-78.97,9.28,0,18.56,0,27.84,0l2.54,73.16Z"/>
    <path class="cls-16" d="M236.61,241.82c-4.19-.13-8.38-.26-12.57-.39-.71-17.86-1.43-35.72-2.14-53.58,4.45-.4,8.9-.8,13.35-1.19.45,18.39.9,36.77,1.35,55.16Z"/>
    <path class="cls-9" d="M45.31,465.91c-7.46,1.15-14.92,2.32-22.38,3.48-1.52-4.28-4.15-9.21-4.57-23.82-.3-10.39-1.02-15.71-.29-22.95.32-3.22.74-5.86,1.06-7.63h23.65l2.53,50.92Z"/>
    <path class="cls-16" d="M38.39,461.43c-3.24-.09-6.47-.18-9.71-.27-.55-12.57-1.1-25.13-1.65-37.7,3.44-.28,6.88-.56,10.31-.84.35,12.94.7,25.87,1.05,38.81Z"/>
    <path class="cls-9" d="M361.48,250.66c8.71,1.94,17.42,3.87,26.13,5.81,1.42-26.32,2.84-52.64,4.26-78.97-9.28,0-18.56,0-27.84,0l-2.54,73.16Z"/>
    <path class="cls-16" d="M369.03,242.66c4.19-.13,8.38-.26,12.57-.39.71-17.86,1.43-35.72,2.14-53.58-4.45-.4-8.9-.8-13.35-1.19-.45,18.39-.9,36.77-1.35,55.16Z"/>
    <circle class="cls-19" cx="156.96" cy="434.23" r="17.23"/>
    <path class="cls-18" d="M154.96,444.61c-8.48.56-14.78-21.36,1.02-24.09,16.3-2.82,14.06,23.2.77,16.49-4.72-2.38-1.82-10.43,2.63-9.15"/>
    <circle class="cls-19" cx="158.76" cy="505.87" r="15.52"/>
    <circle class="cls-19" cx="158.76" cy="505.87" r="15.52"/>
    <path class="cls-18" d="M151.3,512.47c-6.71-3.69-.85-23.39,12.47-17.79,13.74,5.77-.59,24.44-7.42,12.89-2.42-4.1,3.68-8.8,6.44-5.67"/>
    <circle class="cls-19" cx="33.03" cy="497.92" r="15.84"/>
    <path class="cls-18" d="M25.25,504.2c-6.71-3.69-.85-23.39,12.47-17.79,13.74,5.77-.59,24.44-7.42,12.89-2.42-4.1,3.68-8.8,6.44-5.67"/>
    <path class="cls-19" d="M587.19,467.59c0,8.57-6.95,15.52-15.52,15.52s-15.52-6.95-15.52-15.52c0-1.74.28-3.4.81-4.96,1.76-5.23,6.23-9.21,11.75-10.27.96-.19,1.95-.29,2.96-.29,3.94,0,7.53,1.47,10.27,3.9,0,0,0,.01.01,0,1.18,1.04,2.19,2.25,3,3.59,1.42,2.34,2.24,5.09,2.24,8.03Z"/>
    <path class="cls-18" d="M567.64,463.63c2.76-3.13,8.86,1.57,6.44,5.67-6.83,11.54-21.16-7.12-7.42-12.89,13.32-5.6,19.18,14.1,12.47,17.79"/>
    <path class="cls-19" d="M592.33,442.58c0,5.31-2.99,9.91-7.38,12.23-.94.5-1.95.89-3,1.16-.01.01-.01,0-.01,0-1.1.29-2.26.44-3.45.44-3.82,0-7.28-1.55-9.78-4.05-2.51-2.5-4.06-5.96-4.06-9.78,0-7.65,6.2-13.84,13.84-13.84,2.33,0,4.54.58,6.46,1.6,4.39,2.32,7.38,6.93,7.38,12.24Z"/>
    <circle class="cls-19" cx="581.56" cy="395.59" r="11.24"/>
    <path class="cls-18" d="M578.64,392.72c2-2.27,6.42,1.13,4.66,4.1-4.95,8.36-15.32-5.15-5.37-9.33,9.65-4.05,13.89,10.21,9.03,12.88"/>
    <circle class="cls-19" cx="577.7" cy="370.28" r="15.1"/>
    <path class="cls-18" d="M573.78,366.43c2.68-3.05,8.62,1.52,6.27,5.51-6.65,11.23-20.59-6.93-7.22-12.54,12.96-5.44,18.66,13.72,12.13,17.31"/>
    <circle class="cls-19" cx="577.12" cy="420.04" r="15.13"/>
    <path class="cls-18" d="M577.42,413.95c3.91,1.14,2.28,8.47-2.34,8.03-13.01-1.26-2.47-21.62,8.31-11.88,10.45,9.44-4.52,22.76-10.55,18.36"/>
    <path class="cls-18" d="M578.39,437.1c3.91,1.14,2.28,8.47-2.34,8.03-13.01-1.26-2.47-21.62,8.31-11.88,10.45,9.44-4.52,22.76-10.55,18.36"/>
    <circle class="cls-19" cx="566.12" cy="499.04" r="17.17"/>
    <path class="cls-18" d="M563.07,494.24c2.95-3.36,9.5,1.68,6.9,6.07-7.32,12.37-22.68-7.63-7.95-13.81,14.27-6,20.55,15.11,13.36,19.06"/>
    <circle class="cls-19" cx="441.9" cy="508.95" r="13.75"/>
    <path class="cls-18" d="M451.85,506.59c2.14,6.44-13.54,15.71-18.82,4.05-5.45-12.03,15.1-15.52,12.59-3.91-.89,4.12-7.69,3.5-7.6-.2"/>
    <circle class="cls-19" cx="442.02" cy="479.41" r="15.79"/>
    <path class="cls-18" d="M431.83,482.63c-4.92-6.04,8.13-22.38,18.55-12.01,10.75,10.69-9.89,22.81-11.92,9.32-.72-4.79,6.83-6.89,8.24-2.88"/>
    <circle class="cls-19" cx="442.98" cy="448.79" r="14.83"/>
    <path class="cls-18" d="M438.96,457.06c-7.22-1.15-8.33-20.75,5.45-20.03,14.22.74,7.38,22.16-2.5,13.99-3.51-2.9.47-9.1,3.96-7.18"/>
    <ellipse class="cls-19" cx="444.51" cy="413.62" rx="18.28" ry="19.27"/>
    <path class="cls-18" d="M431.72,408.45c-.11-9.5,23.48-15.21,25.47,2.61,2.04,18.38-25.39,14.29-17.52-.15,2.8-5.12,11.16-1.39,9.54,3.5"/>
    <ellipse class="cls-19" cx="445.5" cy="374.19" rx="17.29" ry="19.27"/>
    <path class="cls-18" d="M444.78,359.54c9.02-2.99,21.25,16.52,4.85,23.73-16.92,7.44-20.93-18.52-4.91-15.83,5.69.96,4.54,9.62-.58,9.66"/>
    <ellipse class="cls-19" cx="442.6" cy="336.43" rx="15.79" ry="17.61"/>
    <path class="cls-18" d="M444.3,345.85c-8,3.37-20.54-13.53-6.12-21.27,14.88-7.99,20.39,15.37,5.61,14.06-5.25-.47-4.83-8.44-.16-8.84"/>
    <circle class="cls-19" cx="158.76" cy="471.36" r="18.99"/>
    <path class="cls-18" d="M168.82,459.9c7.82,5.15-1.24,28.6-16.94,20.48-16.2-8.38,3.1-29.74,10.31-15,2.56,5.23-5.35,10.37-8.4,6.28"/>
    <path class="cls-9" d="M581.91,467.84c-8.13-1.21-16.26-2.42-24.4-3.63l2.51-48.16h21.33c.6,7.51,1.02,15.51,1.16,23.95.16,9.87-.08,19.19-.59,27.84Z"/>
    <path class="cls-16" d="M563.9,463.43c3.77-.1,7.53-.19,11.3-.29.64-13.26,1.28-26.53,1.92-39.79-4-.3-8-.59-12.01-.89-.41,13.65-.81,27.31-1.22,40.96Z"/>
    <path class="cls-12" d="M302,157.93c-7.73-6.53-15.46-13.08-23.19-19.62,1.3-2.22,2.6-5.33,1.74-8.45-1-3.63-4.19-4.56-3.87-7.1.3-2.36,3.17-2.37,5.81-6.71.46-.76,2.37-3.9,1.35-5.09-.73-.86-2.86-.56-4.19,0-1.64.68-2.29,1.84-3.68,1.67-.24-.03-.8-.09-1.23-.51-.96-.94-.02-2.42-.45-4.97-.16-.97-.44-2.64-1.42-2.97-1.1-.37-2.81,1.06-3.67,2.45-1,1.6-.78,2.95-1.81,3.36-.51.2-1.16.12-1.61-.2-.99-.67-.46-2.03-1.17-4.19-.13-.41-.97-3.02-2.19-3.1-1.02-.06-2.06,1.68-2.52,3.1-.84,2.64.33,4.2,1.36,9.87.93,5.11.3,6.06-.19,6.45-1.22.98-3.11-.3-3.87.71-.67.89-.12,3.09.9,4.46.39.51.75.79.77,1.35.03.81-.69,1.62-1.48,1.94-.78.31-1.41.07-2,0-2.83-.36-5.88,2.93-5.55,3.61.24.47,2.03-.61,3.87.39.76.41,1.64,1.23,1.49,1.87-.19.74-1.43.68-2.91,1.61-1.89,1.19-2.98,3.29-2.64,3.68.51.59,4.09-3.02,7.61-2,.48.14,1.06.32,1.35.84.81,1.44-1.97,3.15-1.87,5.54.12,2.51,3.38,5.14,6.33,5.17,2.83.02,3.66-2.36,6-2.65,2.27-.28,5.57,1.48,10.25,9.74h22.97c-.1-.08-.19-.16-.29-.25ZM266.19,128.51c-1.09,0-1.97-.89-1.97-1.98s.88-1.97,1.97-1.97,1.98.88,1.98,1.97-.89,1.98-1.98,1.98Z"/>
    <path class="cls-22" d="M113.28,398.31c0,2.29-1.86,4.15-4.15,4.15-7.67,0-15.34,0-23,0s-16,0-24,0c-2.29,0-4.15-1.86-4.15-4.15v-3.26c0-.99.36-1.95,1-2.7,3-3.54,12.18-12.73,26.69-12.71,14.47.02,23.61,9.18,26.61,12.71.64.76,1,1.71,1,2.7v3.26Z"/>
    <path class="cls-12" d="M351.71,137.86c-1.47-.93-2.72-.87-2.9-1.61-.15-.64.72-1.46,1.49-1.87,1.83-1,3.63.08,3.87-.39.33-.68-2.72-3.97-5.55-3.61-.59.07-1.23.31-2,0-.79-.32-1.51-1.13-1.49-1.94.02-.56.39-.84.78-1.35,1.02-1.37,1.57-3.57.9-4.46-.76-1.01-2.65.27-3.87-.71-.49-.39-1.12-1.34-.19-6.45,1.03-5.67,2.2-7.23,1.35-9.87-.45-1.42-1.5-3.16-2.51-3.1-1.22.08-2.07,2.69-2.2,3.1-.7,2.16-.18,3.52-1.16,4.19-.45.32-1.11.4-1.61.2-1.04-.41-.81-1.76-1.81-3.36-.87-1.39-2.57-2.82-3.68-2.45-.97.33-1.25,2-1.42,2.97-.42,2.55.52,4.03-.45,4.97-.43.42-.98.48-1.22.51-1.39.17-2.04-.99-3.68-1.67-1.33-.56-3.46-.86-4.19,0-1.02,1.19.89,4.33,1.35,5.09,2.64,4.34,5.51,4.35,5.81,6.71.32,2.54-2.87,3.47-3.87,7.1-.87,3.12.43,6.23,1.74,8.45-7.73,6.54-15.47,13.09-23.2,19.62-.1.09-.19.17-.29.25h22.97c4.69-8.26,7.99-10.02,10.26-9.74,2.34.29,3.17,2.67,6,2.65,2.95-.03,6.21-2.66,6.32-5.17.11-2.39-2.68-4.1-1.87-5.54.29-.52.87-.7,1.36-.84,3.52-1.02,7.1,2.59,7.61,2,.34-.39-.75-2.49-2.65-3.68ZM338.05,128.51c-1.09,0-1.98-.89-1.98-1.98s.89-1.97,1.98-1.97,1.97.88,1.97,1.97-.89,1.98-1.97,1.98Z"/>
    <ellipse class="cls-20" cx="85.14" cy="375.75" rx="20.63" ry="25.28"/>
    <circle class="cls-19" cx="155.27" cy="299.39" r="17.29"/>
    <circle class="cls-19" cx="157.45" cy="331.01" r="14.33"/>
    <path class="cls-20" d="M544.66,403.12c-7.64-.64-15.9-1.03-24.72-1.05-9.15-.01-17.7.39-25.58,1.05-.23,0-1.45-.02-2.43-1.01-.62-.62-1.01-1.48-1.01-2.43v-4.54c0-.8.27-1.57.78-2.18,2.81-3.41,12.41-13.46,27.84-13.44,15.39.02,24.95,10.04,27.76,13.44.51.62.78,1.38.78,2.18v4.54c0,1.9-1.54,3.43-3.43,3.43Z"/>
    <ellipse class="cls-21" cx="85.14" cy="375.75" rx="14.57" ry="17.85"/>
    <ellipse class="cls-22" cx="519" cy="375.5" rx="21.33" ry="26.13"/>
    <rect class="cls-21" x="507.04" y="359.27" width="24.94" height="32.47" rx="2.71" ry="2.71"/>
    <ellipse class="cls-22" cx="519.51" cy="348.75" rx="3.55" ry="8.3"/>
    <ellipse class="cls-20" cx="85.64" cy="349.87" rx="3.43" ry="8.03"/>
    <path class="cls-18" d="M156.95,384.56c8.17-2.35,18.97,17.75,4.1,23.76-15.34,6.21-18.65-19.7-4.24-15.96,5.12,1.33,3.98,9.81-.64,9.5"/>
    <circle class="cls-20" cx="303.03" cy="34.72" r="13.74"/>
    <circle class="cls-21" cx="303.03" cy="34.72" r="10.28"/>
    <path class="cls-18" d="M151.17,309.62c-8.21-.51-11.54-22.35,3.97-23.01,16.01-.68,10.62,24.03-1.31,15.93-4.23-2.87-.45-10.24,3.67-8.46"/>
    <path class="cls-14" d="M133.81,313.33c-2.16-13.67-4.32-27.34-6.49-41.02,11.95-.68,23.9-1.36,35.85-2.05-9.79,14.35-19.58,28.71-29.37,43.06Z"/>
    <path class="cls-15" d="M140.18,303.84c-1.37-8.65-2.74-17.3-4.1-25.95,7.56-.43,15.12-.86,22.68-1.29-6.19,9.08-12.39,18.16-18.58,27.25Z"/>
    <path class="cls-6" d="M162.84,270.26c-2.16-13.67-4.32-27.34-6.49-41.02,11.95-.68,23.9-1.36,35.85-2.05-9.79,14.35-19.58,28.71-29.37,43.06Z"/>
    <path class="cls-15" d="M169.21,260.78c-1.37-8.65-2.74-17.3-4.1-25.95,7.56-.43,15.12-.86,22.68-1.29l-18.58,27.25Z"/>
    <path class="cls-18" d="M147.42,327.17c-.08-7.07,18.41-11.31,19.97,1.94,1.6,13.67-19.91,10.63-13.73-.11,2.19-3.81,8.75-1.04,7.48,2.6"/>
    <circle class="cls-19" cx="157.45" cy="363.5" r="17.23"/>
    <path class="cls-18" d="M158.09,349.2c8.35-1.59,17.26,19.41,1.91,24.04-15.84,4.77-16.77-21.33-2.76-16.28,4.97,1.79,3.07,10.13-1.51,9.4"/>
    <path class="cls-2" d="M383.12,521.49c2.33-5.39,4.49-12.67,1.16-17.42-4.55-6.51-16.62-4.32-17.71-8.9-.8-3.36,5.56-5.05,7.65-12.39,1.39-4.88.83-12.1-3.1-14.71-5.21-3.46-12.23,3.95-18.23.26-4.36-2.69-2.74-7.9-6.55-9.55-5.74-2.47-11.54,8.45-19.35,6.97-6.86-1.3-6.7-10.45-14.71-12.39-4.86-1.17-11.1.69-14.32,4.65-4.92,6.03-.58,12.64-5.42,16.65-4.15,3.44-9.09-.2-14.45,4.35-2.94,2.49-4.07,5.81-4.26,6.39-1.37,4.17.33,5.94-.49,9.85-.93,4.43-3.85,5.64-6.73,9.6-2.32,3.19-4.73,8.3-4.81,16.65h121.32Z"/>
    <path class="cls-10" d="M123.15,521.49c-1.36,0-2.22-1.46-1.55-2.65l2.35-4.18c3.9-6.9,10.58-5.17,13.94-10.45,4.58-7.22-3.73-16.96,1.55-22.45,1.98-2.06,3.38-.93,5.42-3.1,4.46-4.75-.98-11.59,1.94-18.97,3.08-7.79,11.5-11.57,17.79-9,4.13,1.69,6.66,4.38,11.63,5.9,3.47,1.06,7.81.33,10.84-1.94,4.66-3.48,3.73-6.11,7.53-7.9,3.66-1.73,7.35-3.4,13.16-3.04,11.16.7,7.31-9.54,20.13-5.86,9.29,2.67,3.43,9.11,8.71,13.21,5.64,4.38,12.44.06,16.66,4.37,3.22,3.28-.78,10.9,1.94,12.39,2.17,1.19,4.88-3.59,9.68-3.48,5.26.12,11.15,6.05,11.23,11.61.1,7.02-1.84,7.53-.5,10.15,1.48,2.89,5.94,2.54,7.47,5.72,1.04,2.16-3.68,5.51-2.32,8.52.56,1.24,6.87.83,9.47,2.2,2.36,1.24,5.47,6.86,5.62,10.03.26,5.61-2.72,8.92-7.74,8.92H123.15Z"/>
    <path class="cls-7" d="M23.77,514.37c-10.24,1.1-19.34-4.09-22.19-11.87-1.58-4.31-1.7-10.66,1.55-14.97,3.12-4.13,6.84-3.05,12.9-9.29.92-.94,2.41-2.59,4.9-4.81,2.48-2.2,3.79-3.37,5.61-4.26,2.48-1.21,3.24-.62,8.71-1.35,4.77-.64,6.95-1.46,12.26-1.71,2.39-.11,3.78-.03,4.9.9,1.75,1.46.91,3.42,2.58,4.77,1.27,1.04,3.15.83,6.84.39,3.54-.43,3.77-.92,6.45-1.16.9-.08,7.04-.62,7.74,1.29.44,1.19-1.7,2.11-3.48,5.29-2.35,4.2-1.92,8.51-1.81,9.42.18,1.49.81,6.73,4.65,9.29,2.81,1.88,5.34.97,7.61,3.61,1.11,1.3,1.49,2.66,1.67,3.36,1.46,5.54-3.01,10.69-3.61,11.35-19.1-.09-38.19-.17-57.29-.26Z"/>
    <path class="cls-4" d="M463.86,488.3c.11.04,2.43-14.14,9.97-16.21,2.74-.75,3.49.83,8.73,1.56,10.05,1.41,13-3.61,19.01-1.25,6.64,2.61,8.96,11.05,9.35,12.47.58,2.1,1.41,6.44,0,11.22-1.23,4.16-2.88,4.29-4.67,9.04-.54,1.43-.85,2.64-1.04,3.69-.71,3.99-.91,6.14-1.14,7.22-.54,2.48-3.92,5.45-16.52,7.48h-84.14c-4.9-10.76-4.81-18.84-3.43-24.62,2.38-9.92,8.8-13.9,6.86-19.94-2.32-7.23-13.13-6.6-14.34-13.4-.97-5.47,5.13-10.9,6.54-12.15,3.04-2.7,5.37-3.19,13.4-6.54,8.1-3.38,9.03-4.23,11.84-5.3,13.2-5.04,35.01-3.46,42.07,8.41,2.13,3.57,2.27,6.99,2.49,12.47.58,14.07-5.09,25.83-4.99,25.87Z"/>
    <path class="cls-9" d="M475.54,465.71c-7.6,1.33-15.2,2.66-22.8,3.98-1.24-18.05-2.48-36.11-3.71-54.16,8.1,0,16.19,0,24.29,0l2.22,50.18Z"/>
    <path class="cls-16" d="M468.35,463.82c-3.36-.09-6.73-.19-10.09-.28-.57-13.06-1.15-26.13-1.72-39.19,3.57-.29,7.15-.58,10.72-.87.36,13.45.73,26.9,1.09,40.35Z"/>
    <path class="cls-9" d="M126.9,466.41c7.83,1.35,15.66,2.71,23.49,4.06,1.28-18.39,2.55-36.79,3.83-55.18-8.34,0-16.69,0-25.03,0l-2.29,51.12Z"/>
    <path class="cls-16" d="M135.65,460.82c3.77-.09,7.53-.18,11.3-.27.64-12.48,1.28-24.96,1.92-37.44-4-.28-8-.56-12.01-.83-.41,12.85-.81,25.7-1.22,38.55Z"/>
  </g>
</svg>